M48
; DRILL file {KiCad (6.0.5)} date Tue Sep 26 15:27:13 2023
; FORMAT={-:-/ absolute / inch / decimal}
; #@! TF.CreationDate,2023-09-26T15:27:13-04:00
; #@! TF.GenerationSoftware,Kicad,Pcbnew,(6.0.5)
; #@! TF.FileFunction,Plated,1,2,PTH
FMAT,2
INCH
; #@! TA.AperFunction,Plated,PTH,ViaDrill
T1C0.0157
; #@! TA.AperFunction,Plated,PTH,ComponentDrill
T2C0.0256
; #@! TA.AperFunction,Plated,PTH,ComponentDrill
T3C0.0394
; #@! TA.AperFunction,Plated,PTH,ComponentDrill
T4C0.0433
; #@! TA.AperFunction,Plated,PTH,ComponentDrill
T5C0.0472
; #@! TA.AperFunction,Plated,PTH,ViaDrill
T6C0.1220
%
G90
G05
T1
X4.728Y-4.2654
X4.9803Y-4.7933
X5.0197Y-4.7638
X5.2067Y-4.3701
X5.3248Y-4.7343
X5.3839Y-4.7244
X5.689Y-4.1437
X5.9055Y-4.5669
T2
X4.5366Y-4.2154
X4.5366Y-4.2654
X4.5366Y-4.3154
X4.5366Y-4.3654
X4.5366Y-4.4154
X4.5366Y-4.4654
X4.5366Y-4.5154
X4.5366Y-4.5654
X4.5366Y-4.6154
X4.5366Y-4.6654
X4.5866Y-4.2154
X4.5866Y-4.2654
X4.5866Y-4.3154
X4.5866Y-4.3654
X4.5866Y-4.4154
X4.5866Y-4.4654
X4.5866Y-4.5154
X4.5866Y-4.5654
X4.5866Y-4.6154
X4.5866Y-4.6654
X5.5659Y-4.2734
X5.5659Y-4.3234
X5.5659Y-4.3734
X5.5659Y-4.4234
X5.5659Y-4.4734
X5.5659Y-4.5234
X5.5659Y-4.5734
X5.5659Y-4.6234
X5.5659Y-4.6734
X5.5659Y-4.7234
X5.6159Y-4.2734
X5.6159Y-4.3234
X5.6159Y-4.3734
X5.6159Y-4.4234
X5.6159Y-4.4734
X5.6159Y-4.5234
X5.6159Y-4.5734
X5.6159Y-4.6234
X5.6159Y-4.6734
X5.6159Y-4.7234
T3
X4.5561Y-4.8622
X4.6512Y-3.8868
X4.6512Y-3.9868
X4.6561Y-4.8622
X4.7512Y-3.8868
X4.7512Y-3.9868
X4.8512Y-3.8868
X4.8512Y-3.9868
X4.8701Y-4.8622
X4.9512Y-3.8868
X4.9512Y-3.9868
X4.9701Y-4.8622
X5.0512Y-3.8868
X5.0512Y-3.9868
X5.0701Y-4.8622
X5.1512Y-3.8868
X5.1512Y-3.9868
X5.1701Y-4.8622
X5.2512Y-3.8868
X5.2512Y-3.9868
X5.3512Y-3.8868
X5.3512Y-3.9868
X5.373Y-4.8622
X5.4512Y-3.8868
X5.4512Y-3.9868
X5.473Y-4.8622
X5.5512Y-3.8868
X5.5512Y-3.9868
X5.573Y-4.8622
T4
X3.9272Y-3.7205
X3.9272Y-3.8976
X3.9272Y-4.9803
X3.9272Y-5.1575
X4.1831Y-3.7205
X4.1831Y-3.8976
X4.1831Y-4.9803
X4.1831Y-5.1575
X6.0138Y-3.7205
X6.0138Y-3.8976
X6.0138Y-4.9803
X6.0138Y-5.1575
X6.2697Y-3.7205
X6.2697Y-3.8976
X6.2697Y-4.9803
X6.2697Y-5.1575
T5
X3.937Y-4.1988
X3.937Y-4.6988
X4.1732Y-4.1988
X4.1732Y-4.6988
X4.8756Y-4.626
X5.2756Y-4.626
X6.0335Y-4.1988
X6.0335Y-4.6988
X6.2697Y-4.1988
X6.2697Y-4.6988
T6
X4.2768Y-4.8323
X4.2787Y-4.0476
X5.9291Y-4.0488
X5.9299Y-4.8327
T0
M30
