%TF.GenerationSoftware,KiCad,Pcbnew,(6.0.5)*%
%TF.CreationDate,2023-12-03T22:55:10-05:00*%
%TF.ProjectId,lcd_128_io_board,6c63645f-3132-4385-9f69-6f5f626f6172,rev?*%
%TF.SameCoordinates,Original*%
%TF.FileFunction,Legend,Bot*%
%TF.FilePolarity,Positive*%
%FSLAX46Y46*%
G04 Gerber Fmt 4.6, Leading zero omitted, Abs format (unit mm)*
G04 Created by KiCad (PCBNEW (6.0.5)) date 2023-12-03 22:55:10*
%MOMM*%
%LPD*%
G01*
G04 APERTURE LIST*
%ADD10C,0.150000*%
%ADD11C,0.120000*%
G04 APERTURE END LIST*
D10*
X157146476Y-101100000D02*
X157241714Y-101052380D01*
X157384571Y-101052380D01*
X157527428Y-101100000D01*
X157622666Y-101195238D01*
X157670285Y-101290476D01*
X157717904Y-101480952D01*
X157717904Y-101623809D01*
X157670285Y-101814285D01*
X157622666Y-101909523D01*
X157527428Y-102004761D01*
X157384571Y-102052380D01*
X157289333Y-102052380D01*
X157146476Y-102004761D01*
X157098857Y-101957142D01*
X157098857Y-101623809D01*
X157289333Y-101623809D01*
X156670285Y-102052380D02*
X156670285Y-101052380D01*
X156289333Y-101052380D01*
X156194095Y-101100000D01*
X156146476Y-101147619D01*
X156098857Y-101242857D01*
X156098857Y-101385714D01*
X156146476Y-101480952D01*
X156194095Y-101528571D01*
X156289333Y-101576190D01*
X156670285Y-101576190D01*
X155717904Y-101147619D02*
X155670285Y-101100000D01*
X155575047Y-101052380D01*
X155336952Y-101052380D01*
X155241714Y-101100000D01*
X155194095Y-101147619D01*
X155146476Y-101242857D01*
X155146476Y-101338095D01*
X155194095Y-101480952D01*
X155765523Y-102052380D01*
X155146476Y-102052380D01*
X154813142Y-101052380D02*
X154146476Y-101052380D01*
X154575047Y-102052380D01*
X157146476Y-123452000D02*
X157241714Y-123404380D01*
X157384571Y-123404380D01*
X157527428Y-123452000D01*
X157622666Y-123547238D01*
X157670285Y-123642476D01*
X157717904Y-123832952D01*
X157717904Y-123975809D01*
X157670285Y-124166285D01*
X157622666Y-124261523D01*
X157527428Y-124356761D01*
X157384571Y-124404380D01*
X157289333Y-124404380D01*
X157146476Y-124356761D01*
X157098857Y-124309142D01*
X157098857Y-123975809D01*
X157289333Y-123975809D01*
X156670285Y-124404380D02*
X156670285Y-123404380D01*
X156289333Y-123404380D01*
X156194095Y-123452000D01*
X156146476Y-123499619D01*
X156098857Y-123594857D01*
X156098857Y-123737714D01*
X156146476Y-123832952D01*
X156194095Y-123880571D01*
X156289333Y-123928190D01*
X156670285Y-123928190D01*
X155717904Y-123499619D02*
X155670285Y-123452000D01*
X155575047Y-123404380D01*
X155336952Y-123404380D01*
X155241714Y-123452000D01*
X155194095Y-123499619D01*
X155146476Y-123594857D01*
X155146476Y-123690095D01*
X155194095Y-123832952D01*
X155765523Y-124404380D01*
X155146476Y-124404380D01*
X154575047Y-123832952D02*
X154670285Y-123785333D01*
X154717904Y-123737714D01*
X154765523Y-123642476D01*
X154765523Y-123594857D01*
X154717904Y-123499619D01*
X154670285Y-123452000D01*
X154575047Y-123404380D01*
X154384571Y-123404380D01*
X154289333Y-123452000D01*
X154241714Y-123499619D01*
X154194095Y-123594857D01*
X154194095Y-123642476D01*
X154241714Y-123737714D01*
X154289333Y-123785333D01*
X154384571Y-123832952D01*
X154575047Y-123832952D01*
X154670285Y-123880571D01*
X154717904Y-123928190D01*
X154765523Y-124023428D01*
X154765523Y-124213904D01*
X154717904Y-124309142D01*
X154670285Y-124356761D01*
X154575047Y-124404380D01*
X154384571Y-124404380D01*
X154289333Y-124356761D01*
X154241714Y-124309142D01*
X154194095Y-124213904D01*
X154194095Y-124023428D01*
X154241714Y-123928190D01*
X154289333Y-123880571D01*
X154384571Y-123832952D01*
X104060476Y-123325000D02*
X104155714Y-123277380D01*
X104298571Y-123277380D01*
X104441428Y-123325000D01*
X104536666Y-123420238D01*
X104584285Y-123515476D01*
X104631904Y-123705952D01*
X104631904Y-123848809D01*
X104584285Y-124039285D01*
X104536666Y-124134523D01*
X104441428Y-124229761D01*
X104298571Y-124277380D01*
X104203333Y-124277380D01*
X104060476Y-124229761D01*
X104012857Y-124182142D01*
X104012857Y-123848809D01*
X104203333Y-123848809D01*
X103584285Y-124277380D02*
X103584285Y-123277380D01*
X103203333Y-123277380D01*
X103108095Y-123325000D01*
X103060476Y-123372619D01*
X103012857Y-123467857D01*
X103012857Y-123610714D01*
X103060476Y-123705952D01*
X103108095Y-123753571D01*
X103203333Y-123801190D01*
X103584285Y-123801190D01*
X102060476Y-124277380D02*
X102631904Y-124277380D01*
X102346190Y-124277380D02*
X102346190Y-123277380D01*
X102441428Y-123420238D01*
X102536666Y-123515476D01*
X102631904Y-123563095D01*
X101727142Y-123277380D02*
X101108095Y-123277380D01*
X101441428Y-123658333D01*
X101298571Y-123658333D01*
X101203333Y-123705952D01*
X101155714Y-123753571D01*
X101108095Y-123848809D01*
X101108095Y-124086904D01*
X101155714Y-124182142D01*
X101203333Y-124229761D01*
X101298571Y-124277380D01*
X101584285Y-124277380D01*
X101679523Y-124229761D01*
X101727142Y-124182142D01*
X104060476Y-101100000D02*
X104155714Y-101052380D01*
X104298571Y-101052380D01*
X104441428Y-101100000D01*
X104536666Y-101195238D01*
X104584285Y-101290476D01*
X104631904Y-101480952D01*
X104631904Y-101623809D01*
X104584285Y-101814285D01*
X104536666Y-101909523D01*
X104441428Y-102004761D01*
X104298571Y-102052380D01*
X104203333Y-102052380D01*
X104060476Y-102004761D01*
X104012857Y-101957142D01*
X104012857Y-101623809D01*
X104203333Y-101623809D01*
X103584285Y-102052380D02*
X103584285Y-101052380D01*
X103203333Y-101052380D01*
X103108095Y-101100000D01*
X103060476Y-101147619D01*
X103012857Y-101242857D01*
X103012857Y-101385714D01*
X103060476Y-101480952D01*
X103108095Y-101528571D01*
X103203333Y-101576190D01*
X103584285Y-101576190D01*
X102060476Y-102052380D02*
X102631904Y-102052380D01*
X102346190Y-102052380D02*
X102346190Y-101052380D01*
X102441428Y-101195238D01*
X102536666Y-101290476D01*
X102631904Y-101338095D01*
X101203333Y-101385714D02*
X101203333Y-102052380D01*
X101441428Y-101004761D02*
X101679523Y-101719047D01*
X101060476Y-101719047D01*
X125836255Y-105214285D02*
X125883874Y-105309523D01*
X125883874Y-105452380D01*
X125836255Y-105595238D01*
X125741016Y-105690476D01*
X125645778Y-105738095D01*
X125455302Y-105785714D01*
X125312445Y-105785714D01*
X125121969Y-105738095D01*
X125026731Y-105690476D01*
X124931493Y-105595238D01*
X124883874Y-105452380D01*
X124883874Y-105357142D01*
X124931493Y-105214285D01*
X124979112Y-105166666D01*
X125312445Y-105166666D01*
X125312445Y-105357142D01*
X124883874Y-104738095D02*
X125883874Y-104738095D01*
X125883874Y-104357142D01*
X125836255Y-104261904D01*
X125788635Y-104214285D01*
X125693397Y-104166666D01*
X125550540Y-104166666D01*
X125455302Y-104214285D01*
X125407683Y-104261904D01*
X125360064Y-104357142D01*
X125360064Y-104738095D01*
X125550540Y-103309523D02*
X124883874Y-103309523D01*
X125931493Y-103547619D02*
X125217207Y-103785714D01*
X125217207Y-103166666D01*
X119047619Y-135083333D02*
X119047619Y-134464285D01*
X118666666Y-134797619D01*
X118666666Y-134654761D01*
X118619047Y-134559523D01*
X118571428Y-134511904D01*
X118476190Y-134464285D01*
X118238095Y-134464285D01*
X118142857Y-134511904D01*
X118095238Y-134559523D01*
X118047619Y-134654761D01*
X118047619Y-134940476D01*
X118095238Y-135035714D01*
X118142857Y-135083333D01*
X118142857Y-134035714D02*
X118095238Y-133988095D01*
X118047619Y-134035714D01*
X118095238Y-134083333D01*
X118142857Y-134035714D01*
X118047619Y-134035714D01*
X119047619Y-133083333D02*
X119047619Y-133559523D01*
X118571428Y-133607142D01*
X118619047Y-133559523D01*
X118666666Y-133464285D01*
X118666666Y-133226190D01*
X118619047Y-133130952D01*
X118571428Y-133083333D01*
X118476190Y-133035714D01*
X118238095Y-133035714D01*
X118142857Y-133083333D01*
X118095238Y-133130952D01*
X118047619Y-133226190D01*
X118047619Y-133464285D01*
X118095238Y-133559523D01*
X118142857Y-133607142D01*
X118428571Y-132607142D02*
X118428571Y-131845238D01*
X118714285Y-130940476D02*
X118047619Y-130940476D01*
X119095238Y-131178571D02*
X118380952Y-131416666D01*
X118380952Y-130797619D01*
X119047619Y-130559523D02*
X118047619Y-130226190D01*
X119047619Y-129892857D01*
X118047619Y-129559523D02*
X119047619Y-129559523D01*
X118047619Y-129083333D02*
X119047619Y-129083333D01*
X118047619Y-128511904D01*
X119047619Y-128511904D01*
X116512000Y-130761904D02*
X116559619Y-130857142D01*
X116559619Y-131000000D01*
X116512000Y-131142857D01*
X116416761Y-131238095D01*
X116321523Y-131285714D01*
X116131047Y-131333333D01*
X115988190Y-131333333D01*
X115797714Y-131285714D01*
X115702476Y-131238095D01*
X115607238Y-131142857D01*
X115559619Y-131000000D01*
X115559619Y-130904761D01*
X115607238Y-130761904D01*
X115654857Y-130714285D01*
X115988190Y-130714285D01*
X115988190Y-130904761D01*
X115559619Y-130285714D02*
X116559619Y-130285714D01*
X115559619Y-129714285D01*
X116559619Y-129714285D01*
X115559619Y-129238095D02*
X116559619Y-129238095D01*
X116559619Y-129000000D01*
X116512000Y-128857142D01*
X116416761Y-128761904D01*
X116321523Y-128714285D01*
X116131047Y-128666666D01*
X115988190Y-128666666D01*
X115797714Y-128714285D01*
X115702476Y-128761904D01*
X115607238Y-128857142D01*
X115559619Y-129000000D01*
X115559619Y-129238095D01*
X123336255Y-96440476D02*
X123383874Y-96535714D01*
X123383874Y-96678571D01*
X123336255Y-96821428D01*
X123241016Y-96916666D01*
X123145778Y-96964285D01*
X122955302Y-97011904D01*
X122812445Y-97011904D01*
X122621969Y-96964285D01*
X122526731Y-96916666D01*
X122431493Y-96821428D01*
X122383874Y-96678571D01*
X122383874Y-96583333D01*
X122431493Y-96440476D01*
X122479112Y-96392857D01*
X122812445Y-96392857D01*
X122812445Y-96583333D01*
X122383874Y-95964285D02*
X123383874Y-95964285D01*
X123383874Y-95583333D01*
X123336255Y-95488095D01*
X123288635Y-95440476D01*
X123193397Y-95392857D01*
X123050540Y-95392857D01*
X122955302Y-95440476D01*
X122907683Y-95488095D01*
X122860064Y-95583333D01*
X122860064Y-95964285D01*
X122383874Y-94440476D02*
X122383874Y-95011904D01*
X122383874Y-94726190D02*
X123383874Y-94726190D01*
X123241016Y-94821428D01*
X123145778Y-94916666D01*
X123098159Y-95011904D01*
X123383874Y-93535714D02*
X123383874Y-94011904D01*
X122907683Y-94059523D01*
X122955302Y-94011904D01*
X123002921Y-93916666D01*
X123002921Y-93678571D01*
X122955302Y-93583333D01*
X122907683Y-93535714D01*
X122812445Y-93488095D01*
X122574350Y-93488095D01*
X122479112Y-93535714D01*
X122431493Y-93583333D01*
X122383874Y-93678571D01*
X122383874Y-93916666D01*
X122431493Y-94011904D01*
X122479112Y-94059523D01*
X139809619Y-130301904D02*
X139809619Y-129730476D01*
X138809619Y-130016190D02*
X139809619Y-130016190D01*
X139809619Y-129492380D02*
X138809619Y-128825714D01*
X139809619Y-128825714D02*
X138809619Y-129492380D01*
X128336255Y-96440476D02*
X128383874Y-96535714D01*
X128383874Y-96678571D01*
X128336255Y-96821428D01*
X128241016Y-96916666D01*
X128145778Y-96964285D01*
X127955302Y-97011904D01*
X127812445Y-97011904D01*
X127621969Y-96964285D01*
X127526731Y-96916666D01*
X127431493Y-96821428D01*
X127383874Y-96678571D01*
X127383874Y-96583333D01*
X127431493Y-96440476D01*
X127479112Y-96392857D01*
X127812445Y-96392857D01*
X127812445Y-96583333D01*
X127383874Y-95964285D02*
X128383874Y-95964285D01*
X128383874Y-95583333D01*
X128336255Y-95488095D01*
X128288635Y-95440476D01*
X128193397Y-95392857D01*
X128050540Y-95392857D01*
X127955302Y-95440476D01*
X127907683Y-95488095D01*
X127860064Y-95583333D01*
X127860064Y-95964285D01*
X127383874Y-94440476D02*
X127383874Y-95011904D01*
X127383874Y-94726190D02*
X128383874Y-94726190D01*
X128241016Y-94821428D01*
X128145778Y-94916666D01*
X128098159Y-95011904D01*
X128383874Y-94107142D02*
X128383874Y-93440476D01*
X127383874Y-93869047D01*
X123336255Y-105214285D02*
X123383874Y-105309523D01*
X123383874Y-105452380D01*
X123336255Y-105595238D01*
X123241016Y-105690476D01*
X123145778Y-105738095D01*
X122955302Y-105785714D01*
X122812445Y-105785714D01*
X122621969Y-105738095D01*
X122526731Y-105690476D01*
X122431493Y-105595238D01*
X122383874Y-105452380D01*
X122383874Y-105357142D01*
X122431493Y-105214285D01*
X122479112Y-105166666D01*
X122812445Y-105166666D01*
X122812445Y-105357142D01*
X122383874Y-104738095D02*
X123383874Y-104738095D01*
X123383874Y-104357142D01*
X123336255Y-104261904D01*
X123288635Y-104214285D01*
X123193397Y-104166666D01*
X123050540Y-104166666D01*
X122955302Y-104214285D01*
X122907683Y-104261904D01*
X122860064Y-104357142D01*
X122860064Y-104738095D01*
X123383874Y-103261904D02*
X123383874Y-103738095D01*
X122907683Y-103785714D01*
X122955302Y-103738095D01*
X123002921Y-103642857D01*
X123002921Y-103404761D01*
X122955302Y-103309523D01*
X122907683Y-103261904D01*
X122812445Y-103214285D01*
X122574350Y-103214285D01*
X122479112Y-103261904D01*
X122431493Y-103309523D01*
X122383874Y-103404761D01*
X122383874Y-103642857D01*
X122431493Y-103738095D01*
X122479112Y-103785714D01*
X133586255Y-96440476D02*
X133633874Y-96535714D01*
X133633874Y-96678571D01*
X133586255Y-96821428D01*
X133491016Y-96916666D01*
X133395778Y-96964285D01*
X133205302Y-97011904D01*
X133062445Y-97011904D01*
X132871969Y-96964285D01*
X132776731Y-96916666D01*
X132681493Y-96821428D01*
X132633874Y-96678571D01*
X132633874Y-96583333D01*
X132681493Y-96440476D01*
X132729112Y-96392857D01*
X133062445Y-96392857D01*
X133062445Y-96583333D01*
X132633874Y-95964285D02*
X133633874Y-95964285D01*
X133633874Y-95583333D01*
X133586255Y-95488095D01*
X133538635Y-95440476D01*
X133443397Y-95392857D01*
X133300540Y-95392857D01*
X133205302Y-95440476D01*
X133157683Y-95488095D01*
X133110064Y-95583333D01*
X133110064Y-95964285D01*
X133538635Y-95011904D02*
X133586255Y-94964285D01*
X133633874Y-94869047D01*
X133633874Y-94630952D01*
X133586255Y-94535714D01*
X133538635Y-94488095D01*
X133443397Y-94440476D01*
X133348159Y-94440476D01*
X133205302Y-94488095D01*
X132633874Y-95059523D01*
X132633874Y-94440476D01*
X133633874Y-93583333D02*
X133633874Y-93773809D01*
X133586255Y-93869047D01*
X133538635Y-93916666D01*
X133395778Y-94011904D01*
X133205302Y-94059523D01*
X132824350Y-94059523D01*
X132729112Y-94011904D01*
X132681493Y-93964285D01*
X132633874Y-93869047D01*
X132633874Y-93678571D01*
X132681493Y-93583333D01*
X132729112Y-93535714D01*
X132824350Y-93488095D01*
X133062445Y-93488095D01*
X133157683Y-93535714D01*
X133205302Y-93583333D01*
X133252921Y-93678571D01*
X133252921Y-93869047D01*
X133205302Y-93964285D01*
X133157683Y-94011904D01*
X133062445Y-94059523D01*
X134000000Y-106190476D02*
X134047619Y-106285714D01*
X134047619Y-106428571D01*
X134000000Y-106571428D01*
X133904761Y-106666666D01*
X133809523Y-106714285D01*
X133619047Y-106761904D01*
X133476190Y-106761904D01*
X133285714Y-106714285D01*
X133190476Y-106666666D01*
X133095238Y-106571428D01*
X133047619Y-106428571D01*
X133047619Y-106333333D01*
X133095238Y-106190476D01*
X133142857Y-106142857D01*
X133476190Y-106142857D01*
X133476190Y-106333333D01*
X133047619Y-105714285D02*
X134047619Y-105714285D01*
X134047619Y-105333333D01*
X134000000Y-105238095D01*
X133952380Y-105190476D01*
X133857142Y-105142857D01*
X133714285Y-105142857D01*
X133619047Y-105190476D01*
X133571428Y-105238095D01*
X133523809Y-105333333D01*
X133523809Y-105714285D01*
X133952380Y-104761904D02*
X134000000Y-104714285D01*
X134047619Y-104619047D01*
X134047619Y-104380952D01*
X134000000Y-104285714D01*
X133952380Y-104238095D01*
X133857142Y-104190476D01*
X133761904Y-104190476D01*
X133619047Y-104238095D01*
X133047619Y-104809523D01*
X133047619Y-104190476D01*
X133952380Y-103809523D02*
X134000000Y-103761904D01*
X134047619Y-103666666D01*
X134047619Y-103428571D01*
X134000000Y-103333333D01*
X133952380Y-103285714D01*
X133857142Y-103238095D01*
X133761904Y-103238095D01*
X133619047Y-103285714D01*
X133047619Y-103857142D01*
X133047619Y-103238095D01*
X137262000Y-130936904D02*
X137309619Y-131032142D01*
X137309619Y-131175000D01*
X137262000Y-131317857D01*
X137166761Y-131413095D01*
X137071523Y-131460714D01*
X136881047Y-131508333D01*
X136738190Y-131508333D01*
X136547714Y-131460714D01*
X136452476Y-131413095D01*
X136357238Y-131317857D01*
X136309619Y-131175000D01*
X136309619Y-131079761D01*
X136357238Y-130936904D01*
X136404857Y-130889285D01*
X136738190Y-130889285D01*
X136738190Y-131079761D01*
X136309619Y-130460714D02*
X137309619Y-130460714D01*
X136309619Y-129889285D01*
X137309619Y-129889285D01*
X136309619Y-129413095D02*
X137309619Y-129413095D01*
X137309619Y-129175000D01*
X137262000Y-129032142D01*
X137166761Y-128936904D01*
X137071523Y-128889285D01*
X136881047Y-128841666D01*
X136738190Y-128841666D01*
X136547714Y-128889285D01*
X136452476Y-128936904D01*
X136357238Y-129032142D01*
X136309619Y-129175000D01*
X136309619Y-129413095D01*
X119848159Y-96250000D02*
X119943397Y-96202380D01*
X120086255Y-96202380D01*
X120229112Y-96250000D01*
X120324350Y-96345238D01*
X120371969Y-96440476D01*
X120419588Y-96630952D01*
X120419588Y-96773809D01*
X120371969Y-96964285D01*
X120324350Y-97059523D01*
X120229112Y-97154761D01*
X120086255Y-97202380D01*
X119991016Y-97202380D01*
X119848159Y-97154761D01*
X119800540Y-97107142D01*
X119800540Y-96773809D01*
X119991016Y-96773809D01*
X119371969Y-97202380D02*
X119371969Y-96202380D01*
X118800540Y-97202380D01*
X118800540Y-96202380D01*
X118324350Y-97202380D02*
X118324350Y-96202380D01*
X118086255Y-96202380D01*
X117943397Y-96250000D01*
X117848159Y-96345238D01*
X117800540Y-96440476D01*
X117752921Y-96630952D01*
X117752921Y-96773809D01*
X117800540Y-96964285D01*
X117848159Y-97059523D01*
X117943397Y-97154761D01*
X118086255Y-97202380D01*
X118324350Y-97202380D01*
X120026731Y-102952380D02*
X119407683Y-102952380D01*
X119741016Y-103333333D01*
X119598159Y-103333333D01*
X119502921Y-103380952D01*
X119455302Y-103428571D01*
X119407683Y-103523809D01*
X119407683Y-103761904D01*
X119455302Y-103857142D01*
X119502921Y-103904761D01*
X119598159Y-103952380D01*
X119883874Y-103952380D01*
X119979112Y-103904761D01*
X120026731Y-103857142D01*
X119074350Y-103285714D02*
X118836255Y-103952380D01*
X118598159Y-103285714D01*
X118312445Y-102952380D02*
X117693397Y-102952380D01*
X118026731Y-103333333D01*
X117883874Y-103333333D01*
X117788635Y-103380952D01*
X117741016Y-103428571D01*
X117693397Y-103523809D01*
X117693397Y-103761904D01*
X117741016Y-103857142D01*
X117788635Y-103904761D01*
X117883874Y-103952380D01*
X118169588Y-103952380D01*
X118264826Y-103904761D01*
X118312445Y-103857142D01*
X141500000Y-106190476D02*
X141547619Y-106285714D01*
X141547619Y-106428571D01*
X141500000Y-106571428D01*
X141404761Y-106666666D01*
X141309523Y-106714285D01*
X141119047Y-106761904D01*
X140976190Y-106761904D01*
X140785714Y-106714285D01*
X140690476Y-106666666D01*
X140595238Y-106571428D01*
X140547619Y-106428571D01*
X140547619Y-106333333D01*
X140595238Y-106190476D01*
X140642857Y-106142857D01*
X140976190Y-106142857D01*
X140976190Y-106333333D01*
X140547619Y-105714285D02*
X141547619Y-105714285D01*
X141547619Y-105333333D01*
X141500000Y-105238095D01*
X141452380Y-105190476D01*
X141357142Y-105142857D01*
X141214285Y-105142857D01*
X141119047Y-105190476D01*
X141071428Y-105238095D01*
X141023809Y-105333333D01*
X141023809Y-105714285D01*
X140547619Y-104190476D02*
X140547619Y-104761904D01*
X140547619Y-104476190D02*
X141547619Y-104476190D01*
X141404761Y-104571428D01*
X141309523Y-104666666D01*
X141261904Y-104761904D01*
X140547619Y-103714285D02*
X140547619Y-103523809D01*
X140595238Y-103428571D01*
X140642857Y-103380952D01*
X140785714Y-103285714D01*
X140976190Y-103238095D01*
X141357142Y-103238095D01*
X141452380Y-103285714D01*
X141500000Y-103333333D01*
X141547619Y-103428571D01*
X141547619Y-103619047D01*
X141500000Y-103714285D01*
X141452380Y-103761904D01*
X141357142Y-103809523D01*
X141119047Y-103809523D01*
X141023809Y-103761904D01*
X140976190Y-103714285D01*
X140928571Y-103619047D01*
X140928571Y-103428571D01*
X140976190Y-103333333D01*
X141023809Y-103285714D01*
X141119047Y-103238095D01*
X131086255Y-96440476D02*
X131133874Y-96535714D01*
X131133874Y-96678571D01*
X131086255Y-96821428D01*
X130991016Y-96916666D01*
X130895778Y-96964285D01*
X130705302Y-97011904D01*
X130562445Y-97011904D01*
X130371969Y-96964285D01*
X130276731Y-96916666D01*
X130181493Y-96821428D01*
X130133874Y-96678571D01*
X130133874Y-96583333D01*
X130181493Y-96440476D01*
X130229112Y-96392857D01*
X130562445Y-96392857D01*
X130562445Y-96583333D01*
X130133874Y-95964285D02*
X131133874Y-95964285D01*
X131133874Y-95583333D01*
X131086255Y-95488095D01*
X131038635Y-95440476D01*
X130943397Y-95392857D01*
X130800540Y-95392857D01*
X130705302Y-95440476D01*
X130657683Y-95488095D01*
X130610064Y-95583333D01*
X130610064Y-95964285D01*
X130133874Y-94440476D02*
X130133874Y-95011904D01*
X130133874Y-94726190D02*
X131133874Y-94726190D01*
X130991016Y-94821428D01*
X130895778Y-94916666D01*
X130848159Y-95011904D01*
X130705302Y-93869047D02*
X130752921Y-93964285D01*
X130800540Y-94011904D01*
X130895778Y-94059523D01*
X130943397Y-94059523D01*
X131038635Y-94011904D01*
X131086255Y-93964285D01*
X131133874Y-93869047D01*
X131133874Y-93678571D01*
X131086255Y-93583333D01*
X131038635Y-93535714D01*
X130943397Y-93488095D01*
X130895778Y-93488095D01*
X130800540Y-93535714D01*
X130752921Y-93583333D01*
X130705302Y-93678571D01*
X130705302Y-93869047D01*
X130657683Y-93964285D01*
X130610064Y-94011904D01*
X130514826Y-94059523D01*
X130324350Y-94059523D01*
X130229112Y-94011904D01*
X130181493Y-93964285D01*
X130133874Y-93869047D01*
X130133874Y-93678571D01*
X130181493Y-93583333D01*
X130229112Y-93535714D01*
X130324350Y-93488095D01*
X130514826Y-93488095D01*
X130610064Y-93535714D01*
X130657683Y-93583333D01*
X130705302Y-93678571D01*
X137633874Y-96488095D02*
X138110064Y-96821428D01*
X137633874Y-97059523D02*
X138633874Y-97059523D01*
X138633874Y-96678571D01*
X138586255Y-96583333D01*
X138538635Y-96535714D01*
X138443397Y-96488095D01*
X138300540Y-96488095D01*
X138205302Y-96535714D01*
X138157683Y-96583333D01*
X138110064Y-96678571D01*
X138110064Y-97059523D01*
X138633874Y-96059523D02*
X137824350Y-96059523D01*
X137729112Y-96011904D01*
X137681493Y-95964285D01*
X137633874Y-95869047D01*
X137633874Y-95678571D01*
X137681493Y-95583333D01*
X137729112Y-95535714D01*
X137824350Y-95488095D01*
X138633874Y-95488095D01*
X137633874Y-95011904D02*
X138633874Y-95011904D01*
X137633874Y-94440476D01*
X138633874Y-94440476D01*
X135657683Y-96797619D02*
X135610064Y-96654761D01*
X135562445Y-96607142D01*
X135467207Y-96559523D01*
X135324350Y-96559523D01*
X135229112Y-96607142D01*
X135181493Y-96654761D01*
X135133874Y-96750000D01*
X135133874Y-97130952D01*
X136133874Y-97130952D01*
X136133874Y-96797619D01*
X136086255Y-96702380D01*
X136038635Y-96654761D01*
X135943397Y-96607142D01*
X135848159Y-96607142D01*
X135752921Y-96654761D01*
X135705302Y-96702380D01*
X135657683Y-96797619D01*
X135657683Y-97130952D01*
X135419588Y-96178571D02*
X135419588Y-95702380D01*
X135133874Y-96273809D02*
X136133874Y-95940476D01*
X135133874Y-95607142D01*
X136133874Y-95416666D02*
X136133874Y-94845238D01*
X135133874Y-95130952D02*
X136133874Y-95130952D01*
X135038635Y-94750000D02*
X135038635Y-93988095D01*
X135419588Y-93797619D02*
X135419588Y-93321428D01*
X135133874Y-93892857D02*
X136133874Y-93559523D01*
X135133874Y-93226190D01*
X135133874Y-92892857D02*
X136133874Y-92892857D01*
X136133874Y-92654761D01*
X136086255Y-92511904D01*
X135991016Y-92416666D01*
X135895778Y-92369047D01*
X135705302Y-92321428D01*
X135562445Y-92321428D01*
X135371969Y-92369047D01*
X135276731Y-92416666D01*
X135181493Y-92511904D01*
X135133874Y-92654761D01*
X135133874Y-92892857D01*
X135229112Y-91321428D02*
X135181493Y-91369047D01*
X135133874Y-91511904D01*
X135133874Y-91607142D01*
X135181493Y-91750000D01*
X135276731Y-91845238D01*
X135371969Y-91892857D01*
X135562445Y-91940476D01*
X135705302Y-91940476D01*
X135895778Y-91892857D01*
X135991016Y-91845238D01*
X136086255Y-91750000D01*
X136133874Y-91607142D01*
X136133874Y-91511904D01*
X136086255Y-91369047D01*
X136038635Y-91321428D01*
X128607238Y-131464285D02*
X128559619Y-131321428D01*
X128559619Y-131083333D01*
X128607238Y-130988095D01*
X128654857Y-130940476D01*
X128750095Y-130892857D01*
X128845333Y-130892857D01*
X128940571Y-130940476D01*
X128988190Y-130988095D01*
X129035809Y-131083333D01*
X129083428Y-131273809D01*
X129131047Y-131369047D01*
X129178666Y-131416666D01*
X129273904Y-131464285D01*
X129369142Y-131464285D01*
X129464380Y-131416666D01*
X129512000Y-131369047D01*
X129559619Y-131273809D01*
X129559619Y-131035714D01*
X129512000Y-130892857D01*
X128559619Y-130464285D02*
X129559619Y-130464285D01*
X129559619Y-130226190D01*
X129512000Y-130083333D01*
X129416761Y-129988095D01*
X129321523Y-129940476D01*
X129131047Y-129892857D01*
X128988190Y-129892857D01*
X128797714Y-129940476D01*
X128702476Y-129988095D01*
X128607238Y-130083333D01*
X128559619Y-130226190D01*
X128559619Y-130464285D01*
X128845333Y-129511904D02*
X128845333Y-129035714D01*
X128559619Y-129607142D02*
X129559619Y-129273809D01*
X128559619Y-128940476D01*
X140419588Y-96869047D02*
X140419588Y-96392857D01*
X140133874Y-96964285D02*
X141133874Y-96630952D01*
X140133874Y-96297619D01*
X140133874Y-95392857D02*
X140610064Y-95726190D01*
X140133874Y-95964285D02*
X141133874Y-95964285D01*
X141133874Y-95583333D01*
X141086255Y-95488095D01*
X141038635Y-95440476D01*
X140943397Y-95392857D01*
X140800540Y-95392857D01*
X140705302Y-95440476D01*
X140657683Y-95488095D01*
X140610064Y-95583333D01*
X140610064Y-95964285D01*
X140657683Y-94964285D02*
X140657683Y-94630952D01*
X140133874Y-94488095D02*
X140133874Y-94964285D01*
X141133874Y-94964285D01*
X141133874Y-94488095D01*
X140657683Y-93726190D02*
X140657683Y-94059523D01*
X140133874Y-94059523D02*
X141133874Y-94059523D01*
X141133874Y-93583333D01*
X141309619Y-129706666D02*
X141785809Y-130040000D01*
X141309619Y-130278095D02*
X142309619Y-130278095D01*
X142309619Y-129897142D01*
X142262000Y-129801904D01*
X142214380Y-129754285D01*
X142119142Y-129706666D01*
X141976285Y-129706666D01*
X141881047Y-129754285D01*
X141833428Y-129801904D01*
X141785809Y-129897142D01*
X141785809Y-130278095D01*
X142309619Y-129373333D02*
X141309619Y-128706666D01*
X142309619Y-128706666D02*
X141309619Y-129373333D01*
X136500000Y-106190476D02*
X136547619Y-106285714D01*
X136547619Y-106428571D01*
X136500000Y-106571428D01*
X136404761Y-106666666D01*
X136309523Y-106714285D01*
X136119047Y-106761904D01*
X135976190Y-106761904D01*
X135785714Y-106714285D01*
X135690476Y-106666666D01*
X135595238Y-106571428D01*
X135547619Y-106428571D01*
X135547619Y-106333333D01*
X135595238Y-106190476D01*
X135642857Y-106142857D01*
X135976190Y-106142857D01*
X135976190Y-106333333D01*
X135547619Y-105714285D02*
X136547619Y-105714285D01*
X136547619Y-105333333D01*
X136500000Y-105238095D01*
X136452380Y-105190476D01*
X136357142Y-105142857D01*
X136214285Y-105142857D01*
X136119047Y-105190476D01*
X136071428Y-105238095D01*
X136023809Y-105333333D01*
X136023809Y-105714285D01*
X136452380Y-104761904D02*
X136500000Y-104714285D01*
X136547619Y-104619047D01*
X136547619Y-104380952D01*
X136500000Y-104285714D01*
X136452380Y-104238095D01*
X136357142Y-104190476D01*
X136261904Y-104190476D01*
X136119047Y-104238095D01*
X135547619Y-104809523D01*
X135547619Y-104190476D01*
X135547619Y-103238095D02*
X135547619Y-103809523D01*
X135547619Y-103523809D02*
X136547619Y-103523809D01*
X136404761Y-103619047D01*
X136309523Y-103714285D01*
X136261904Y-103809523D01*
X127059619Y-131440476D02*
X127059619Y-130821428D01*
X126678666Y-131154761D01*
X126678666Y-131011904D01*
X126631047Y-130916666D01*
X126583428Y-130869047D01*
X126488190Y-130821428D01*
X126250095Y-130821428D01*
X126154857Y-130869047D01*
X126107238Y-130916666D01*
X126059619Y-131011904D01*
X126059619Y-131297619D01*
X126107238Y-131392857D01*
X126154857Y-131440476D01*
X126726285Y-130488095D02*
X126059619Y-130250000D01*
X126726285Y-130011904D01*
X127059619Y-129726190D02*
X127059619Y-129107142D01*
X126678666Y-129440476D01*
X126678666Y-129297619D01*
X126631047Y-129202380D01*
X126583428Y-129154761D01*
X126488190Y-129107142D01*
X126250095Y-129107142D01*
X126154857Y-129154761D01*
X126107238Y-129202380D01*
X126059619Y-129297619D01*
X126059619Y-129583333D01*
X126107238Y-129678571D01*
X126154857Y-129726190D01*
X139000000Y-106190476D02*
X139047619Y-106285714D01*
X139047619Y-106428571D01*
X139000000Y-106571428D01*
X138904761Y-106666666D01*
X138809523Y-106714285D01*
X138619047Y-106761904D01*
X138476190Y-106761904D01*
X138285714Y-106714285D01*
X138190476Y-106666666D01*
X138095238Y-106571428D01*
X138047619Y-106428571D01*
X138047619Y-106333333D01*
X138095238Y-106190476D01*
X138142857Y-106142857D01*
X138476190Y-106142857D01*
X138476190Y-106333333D01*
X138047619Y-105714285D02*
X139047619Y-105714285D01*
X139047619Y-105333333D01*
X139000000Y-105238095D01*
X138952380Y-105190476D01*
X138857142Y-105142857D01*
X138714285Y-105142857D01*
X138619047Y-105190476D01*
X138571428Y-105238095D01*
X138523809Y-105333333D01*
X138523809Y-105714285D01*
X138952380Y-104761904D02*
X139000000Y-104714285D01*
X139047619Y-104619047D01*
X139047619Y-104380952D01*
X139000000Y-104285714D01*
X138952380Y-104238095D01*
X138857142Y-104190476D01*
X138761904Y-104190476D01*
X138619047Y-104238095D01*
X138047619Y-104809523D01*
X138047619Y-104190476D01*
X139047619Y-103571428D02*
X139047619Y-103476190D01*
X139000000Y-103380952D01*
X138952380Y-103333333D01*
X138857142Y-103285714D01*
X138666666Y-103238095D01*
X138428571Y-103238095D01*
X138238095Y-103285714D01*
X138142857Y-103333333D01*
X138095238Y-103380952D01*
X138047619Y-103476190D01*
X138047619Y-103571428D01*
X138095238Y-103666666D01*
X138142857Y-103714285D01*
X138238095Y-103761904D01*
X138428571Y-103809523D01*
X138666666Y-103809523D01*
X138857142Y-103761904D01*
X138952380Y-103714285D01*
X139000000Y-103666666D01*
X139047619Y-103571428D01*
X125836255Y-96440476D02*
X125883874Y-96535714D01*
X125883874Y-96678571D01*
X125836255Y-96821428D01*
X125741016Y-96916666D01*
X125645778Y-96964285D01*
X125455302Y-97011904D01*
X125312445Y-97011904D01*
X125121969Y-96964285D01*
X125026731Y-96916666D01*
X124931493Y-96821428D01*
X124883874Y-96678571D01*
X124883874Y-96583333D01*
X124931493Y-96440476D01*
X124979112Y-96392857D01*
X125312445Y-96392857D01*
X125312445Y-96583333D01*
X124883874Y-95964285D02*
X125883874Y-95964285D01*
X125883874Y-95583333D01*
X125836255Y-95488095D01*
X125788635Y-95440476D01*
X125693397Y-95392857D01*
X125550540Y-95392857D01*
X125455302Y-95440476D01*
X125407683Y-95488095D01*
X125360064Y-95583333D01*
X125360064Y-95964285D01*
X124883874Y-94440476D02*
X124883874Y-95011904D01*
X124883874Y-94726190D02*
X125883874Y-94726190D01*
X125741016Y-94821428D01*
X125645778Y-94916666D01*
X125598159Y-95011904D01*
X125883874Y-93583333D02*
X125883874Y-93773809D01*
X125836255Y-93869047D01*
X125788635Y-93916666D01*
X125645778Y-94011904D01*
X125455302Y-94059523D01*
X125074350Y-94059523D01*
X124979112Y-94011904D01*
X124931493Y-93964285D01*
X124883874Y-93869047D01*
X124883874Y-93678571D01*
X124931493Y-93583333D01*
X124979112Y-93535714D01*
X125074350Y-93488095D01*
X125312445Y-93488095D01*
X125407683Y-93535714D01*
X125455302Y-93583333D01*
X125502921Y-93678571D01*
X125502921Y-93869047D01*
X125455302Y-93964285D01*
X125407683Y-94011904D01*
X125312445Y-94059523D01*
X131352141Y-131431789D02*
X131304522Y-131288932D01*
X131304522Y-131050836D01*
X131352141Y-130955598D01*
X131399760Y-130907979D01*
X131494998Y-130860360D01*
X131590236Y-130860360D01*
X131685474Y-130907979D01*
X131733093Y-130955598D01*
X131780712Y-131050836D01*
X131828331Y-131241313D01*
X131875950Y-131336551D01*
X131923569Y-131384170D01*
X132018807Y-131431789D01*
X132114045Y-131431789D01*
X132209283Y-131384170D01*
X132256903Y-131336551D01*
X132304522Y-131241313D01*
X132304522Y-131003217D01*
X132256903Y-130860360D01*
X131399760Y-129860360D02*
X131352141Y-129907979D01*
X131304522Y-130050836D01*
X131304522Y-130146074D01*
X131352141Y-130288932D01*
X131447379Y-130384170D01*
X131542617Y-130431789D01*
X131733093Y-130479408D01*
X131875950Y-130479408D01*
X132066426Y-130431789D01*
X132161664Y-130384170D01*
X132256903Y-130288932D01*
X132304522Y-130146074D01*
X132304522Y-130050836D01*
X132256903Y-129907979D01*
X132209283Y-129860360D01*
X131304522Y-128955598D02*
X131304522Y-129431789D01*
X132304522Y-129431789D01*
X124512000Y-131011904D02*
X124559619Y-131107142D01*
X124559619Y-131250000D01*
X124512000Y-131392857D01*
X124416761Y-131488095D01*
X124321523Y-131535714D01*
X124131047Y-131583333D01*
X123988190Y-131583333D01*
X123797714Y-131535714D01*
X123702476Y-131488095D01*
X123607238Y-131392857D01*
X123559619Y-131250000D01*
X123559619Y-131154761D01*
X123607238Y-131011904D01*
X123654857Y-130964285D01*
X123988190Y-130964285D01*
X123988190Y-131154761D01*
X123559619Y-130535714D02*
X124559619Y-130535714D01*
X123559619Y-129964285D01*
X124559619Y-129964285D01*
X123559619Y-129488095D02*
X124559619Y-129488095D01*
X124559619Y-129250000D01*
X124512000Y-129107142D01*
X124416761Y-129011904D01*
X124321523Y-128964285D01*
X124131047Y-128916666D01*
X123988190Y-128916666D01*
X123797714Y-128964285D01*
X123702476Y-129011904D01*
X123607238Y-129107142D01*
X123559619Y-129250000D01*
X123559619Y-129488095D01*
X130836255Y-105214285D02*
X130883874Y-105309523D01*
X130883874Y-105452380D01*
X130836255Y-105595238D01*
X130741016Y-105690476D01*
X130645778Y-105738095D01*
X130455302Y-105785714D01*
X130312445Y-105785714D01*
X130121969Y-105738095D01*
X130026731Y-105690476D01*
X129931493Y-105595238D01*
X129883874Y-105452380D01*
X129883874Y-105357142D01*
X129931493Y-105214285D01*
X129979112Y-105166666D01*
X130312445Y-105166666D01*
X130312445Y-105357142D01*
X129883874Y-104738095D02*
X130883874Y-104738095D01*
X130883874Y-104357142D01*
X130836255Y-104261904D01*
X130788635Y-104214285D01*
X130693397Y-104166666D01*
X130550540Y-104166666D01*
X130455302Y-104214285D01*
X130407683Y-104261904D01*
X130360064Y-104357142D01*
X130360064Y-104738095D01*
X130788635Y-103785714D02*
X130836255Y-103738095D01*
X130883874Y-103642857D01*
X130883874Y-103404761D01*
X130836255Y-103309523D01*
X130788635Y-103261904D01*
X130693397Y-103214285D01*
X130598159Y-103214285D01*
X130455302Y-103261904D01*
X129883874Y-103833333D01*
X129883874Y-103214285D01*
X128336255Y-105214285D02*
X128383874Y-105309523D01*
X128383874Y-105452380D01*
X128336255Y-105595238D01*
X128241016Y-105690476D01*
X128145778Y-105738095D01*
X127955302Y-105785714D01*
X127812445Y-105785714D01*
X127621969Y-105738095D01*
X127526731Y-105690476D01*
X127431493Y-105595238D01*
X127383874Y-105452380D01*
X127383874Y-105357142D01*
X127431493Y-105214285D01*
X127479112Y-105166666D01*
X127812445Y-105166666D01*
X127812445Y-105357142D01*
X127383874Y-104738095D02*
X128383874Y-104738095D01*
X128383874Y-104357142D01*
X128336255Y-104261904D01*
X128288635Y-104214285D01*
X128193397Y-104166666D01*
X128050540Y-104166666D01*
X127955302Y-104214285D01*
X127907683Y-104261904D01*
X127860064Y-104357142D01*
X127860064Y-104738095D01*
X128383874Y-103833333D02*
X128383874Y-103214285D01*
X128002921Y-103547619D01*
X128002921Y-103404761D01*
X127955302Y-103309523D01*
X127907683Y-103261904D01*
X127812445Y-103214285D01*
X127574350Y-103214285D01*
X127479112Y-103261904D01*
X127431493Y-103309523D01*
X127383874Y-103404761D01*
X127383874Y-103690476D01*
X127431493Y-103785714D01*
X127479112Y-103833333D01*
D11*
%TO.C,J3*%
X115832000Y-120329000D02*
X116034470Y-120329000D01*
X113942000Y-120394000D02*
X115072000Y-120394000D01*
X115832000Y-118927471D02*
X115832000Y-119070529D01*
X116649530Y-120329000D02*
X117472000Y-120329000D01*
X115379530Y-107509000D02*
X116034470Y-107509000D01*
X117472000Y-120329000D02*
X117472000Y-107509000D01*
X113942000Y-107509000D02*
X114764470Y-107509000D01*
X113942000Y-118874000D02*
X113942000Y-107509000D01*
X115635471Y-118874000D02*
X115778529Y-118874000D01*
X113942000Y-118874000D02*
X114508529Y-118874000D01*
X115832000Y-120197471D02*
X115832000Y-120329000D01*
X116649530Y-107509000D02*
X117472000Y-107509000D01*
X113942000Y-119634000D02*
X113942000Y-120394000D01*
%TO.C,J4*%
X142746000Y-118927471D02*
X142746000Y-119070529D01*
X140856000Y-118874000D02*
X141422529Y-118874000D01*
X142746000Y-120329000D02*
X142948470Y-120329000D01*
X140856000Y-107509000D02*
X141678470Y-107509000D01*
X140856000Y-120394000D02*
X141986000Y-120394000D01*
X144386000Y-120329000D02*
X144386000Y-107509000D01*
X142549471Y-118874000D02*
X142692529Y-118874000D01*
X142293530Y-107509000D02*
X142948470Y-107509000D01*
X140856000Y-118874000D02*
X140856000Y-107509000D01*
X143563530Y-107509000D02*
X144386000Y-107509000D01*
X142746000Y-120197471D02*
X142746000Y-120329000D01*
X143563530Y-120329000D02*
X144386000Y-120329000D01*
X140856000Y-119634000D02*
X140856000Y-120394000D01*
%TD*%
M02*
