M48
; DRILL file {KiCad (6.0.5)} date Sun Dec  3 22:55:12 2023
; FORMAT={-:-/ absolute / inch / decimal}
; #@! TF.CreationDate,2023-12-03T22:55:12-05:00
; #@! TF.GenerationSoftware,Kicad,Pcbnew,(6.0.5)
; #@! TF.FileFunction,Plated,1,2,PTH
FMAT,2
INCH
; #@! TA.AperFunction,Plated,PTH,ViaDrill
T1C0.0157
; #@! TA.AperFunction,Plated,PTH,ComponentDrill
T2C0.0256
; #@! TA.AperFunction,Plated,PTH,ComponentDrill
T3C0.0394
; #@! TA.AperFunction,Plated,PTH,ComponentDrill
T4C0.0433
; #@! TA.AperFunction,Plated,PTH,ComponentDrill
T5C0.0472
%
G90
G05
T1
X4.728Y-4.2654
X4.8917Y-4.8622
X4.9705Y-4.8622
X5.0Y-4.7835
X5.0394Y-4.9016
X5.128Y-4.9016
X5.2067Y-4.3701
X5.3248Y-4.7343
X5.3839Y-4.7244
X5.4232Y-4.8622
X5.6791Y-4.8228
X5.689Y-4.1437
X5.9055Y-4.5669
T2
X4.5304Y-4.26
X4.5304Y-4.31
X4.5304Y-4.36
X4.5304Y-4.41
X4.5304Y-4.46
X4.5304Y-4.51
X4.5304Y-4.56
X4.5304Y-4.61
X4.5304Y-4.66
X4.5304Y-4.71
X4.5804Y-4.26
X4.5804Y-4.31
X4.5804Y-4.36
X4.5804Y-4.41
X4.5804Y-4.46
X4.5804Y-4.51
X4.5804Y-4.56
X4.5804Y-4.61
X4.5804Y-4.66
X4.5804Y-4.71
X5.59Y-4.26
X5.59Y-4.31
X5.59Y-4.36
X5.59Y-4.41
X5.59Y-4.46
X5.59Y-4.51
X5.59Y-4.56
X5.59Y-4.61
X5.59Y-4.66
X5.59Y-4.71
X5.64Y-4.26
X5.64Y-4.31
X5.64Y-4.36
X5.64Y-4.41
X5.64Y-4.46
X5.64Y-4.51
X5.64Y-4.56
X5.64Y-4.61
X5.64Y-4.66
X5.64Y-4.71
T3
X4.5664Y-5.0
X4.6349Y-3.8868
X4.6349Y-3.9868
X4.6664Y-5.0
X4.7349Y-3.8868
X4.7349Y-3.9868
X4.8349Y-3.8868
X4.8349Y-3.9868
X4.8804Y-5.0
X4.9349Y-3.8868
X4.9349Y-3.9868
X4.9804Y-5.0
X5.0349Y-3.8868
X5.0349Y-3.9868
X5.0804Y-5.0
X5.1349Y-3.8868
X5.1349Y-3.9868
X5.1804Y-5.0
X5.2349Y-3.8868
X5.2349Y-3.9868
X5.3349Y-3.8868
X5.3349Y-3.9868
X5.3833Y-5.0
X5.4349Y-3.8868
X5.4349Y-3.9868
X5.4833Y-5.0
X5.5349Y-3.8868
X5.5349Y-3.9868
X5.5833Y-5.0
T4
X3.9272Y-3.7205
X3.9272Y-3.8976
X3.9272Y-4.9803
X3.9272Y-5.1575
X4.1831Y-3.7205
X4.1831Y-3.8976
X4.1831Y-4.9803
X4.1831Y-5.1575
X6.0138Y-3.7205
X6.0138Y-3.8976
X6.0138Y-4.9803
X6.0138Y-5.1575
X6.2697Y-3.7205
X6.2697Y-3.8976
X6.2697Y-4.9803
X6.2697Y-5.1575
T5
X3.937Y-4.1988
X3.937Y-4.6988
X4.1732Y-4.1988
X4.1732Y-4.6988
X4.8756Y-4.626
X5.2756Y-4.626
X6.0335Y-4.1988
X6.0335Y-4.6988
X6.2697Y-4.1988
X6.2697Y-4.6988
T0
M30
