%TF.GenerationSoftware,KiCad,Pcbnew,(6.0.5)*%
%TF.CreationDate,2023-12-03T22:55:09-05:00*%
%TF.ProjectId,lcd_128_io_board,6c63645f-3132-4385-9f69-6f5f626f6172,rev?*%
%TF.SameCoordinates,Original*%
%TF.FileFunction,Copper,L1,Top*%
%TF.FilePolarity,Positive*%
%FSLAX46Y46*%
G04 Gerber Fmt 4.6, Leading zero omitted, Abs format (unit mm)*
G04 Created by KiCad (PCBNEW (6.0.5)) date 2023-12-03 22:55:10*
%MOMM*%
%LPD*%
G01*
G04 APERTURE LIST*
%TA.AperFunction,ComponentPad*%
%ADD10R,1.700000X1.700000*%
%TD*%
%TA.AperFunction,ComponentPad*%
%ADD11O,1.700000X1.700000*%
%TD*%
%TA.AperFunction,ComponentPad*%
%ADD12C,2.000000*%
%TD*%
%TA.AperFunction,ComponentPad*%
%ADD13C,2.400000*%
%TD*%
%TA.AperFunction,ComponentPad*%
%ADD14O,2.400000X2.400000*%
%TD*%
%TA.AperFunction,ComponentPad*%
%ADD15R,2.400000X2.400000*%
%TD*%
%TA.AperFunction,ComponentPad*%
%ADD16O,1.000000X1.000000*%
%TD*%
%TA.AperFunction,ComponentPad*%
%ADD17R,1.000000X1.000000*%
%TD*%
%TA.AperFunction,ViaPad*%
%ADD18C,0.800000*%
%TD*%
%TA.AperFunction,Conductor*%
%ADD19C,0.250000*%
%TD*%
%TA.AperFunction,Conductor*%
%ADD20C,0.500000*%
%TD*%
G04 APERTURE END LIST*
D10*
%TO.P,J5,1,Pin_1*%
%TO.N,GND*%
X123962000Y-127000000D03*
D11*
%TO.P,J5,2,Pin_2*%
%TO.N,VDD*%
X126502000Y-127000000D03*
%TO.P,J5,3,Pin_3*%
%TO.N,SDA*%
X129042000Y-127000000D03*
%TO.P,J5,4,Pin_4*%
%TO.N,SCL*%
X131582000Y-127000000D03*
%TD*%
D12*
%TO.P,SW1,1,1*%
%TO.N,GND*%
X159250000Y-126500000D03*
X152750000Y-126500000D03*
%TO.P,SW1,2,2*%
%TO.N,GP28*%
X159250000Y-131000000D03*
X152750000Y-131000000D03*
%TD*%
D13*
%TO.P,R4,1*%
%TO.N,VDD*%
X159250000Y-119350000D03*
D14*
%TO.P,R4,2*%
%TO.N,GP27*%
X159250000Y-106650000D03*
%TD*%
D12*
%TO.P,SW3,1,1*%
%TO.N,GND*%
X99750000Y-94500000D03*
X106250000Y-94500000D03*
%TO.P,SW3,2,2*%
%TO.N,GP14*%
X99750000Y-99000000D03*
X106250000Y-99000000D03*
%TD*%
D10*
%TO.P,J6,1,Pin_1*%
%TO.N,AREF*%
X140586255Y-98725000D03*
D11*
%TO.P,J6,2,Pin_2*%
%TO.N,GP19*%
X140586255Y-101265000D03*
%TO.P,J6,3,Pin_3*%
%TO.N,RUN*%
X138046255Y-98725000D03*
%TO.P,J6,4,Pin_4*%
%TO.N,GP20*%
X138046255Y-101265000D03*
%TO.P,J6,5,Pin_5*%
%TO.N,BAT_ADC*%
X135506255Y-98725000D03*
%TO.P,J6,6,Pin_6*%
%TO.N,GP21*%
X135506255Y-101265000D03*
%TO.P,J6,7,Pin_7*%
%TO.N,GP26*%
X132966255Y-98725000D03*
%TO.P,J6,8,Pin_8*%
%TO.N,GP22*%
X132966255Y-101265000D03*
%TO.P,J6,9,Pin_9*%
%TO.N,GP18*%
X130426255Y-98725000D03*
%TO.P,J6,10,Pin_10*%
%TO.N,GP2*%
X130426255Y-101265000D03*
%TO.P,J6,11,Pin_11*%
%TO.N,GP17*%
X127886255Y-98725000D03*
%TO.P,J6,12,Pin_12*%
%TO.N,GP3*%
X127886255Y-101265000D03*
%TO.P,J6,13,Pin_13*%
%TO.N,GP16*%
X125346255Y-98725000D03*
%TO.P,J6,14,Pin_14*%
%TO.N,GP4*%
X125346255Y-101265000D03*
%TO.P,J6,15,Pin_15*%
%TO.N,GP15*%
X122806255Y-98725000D03*
%TO.P,J6,16,Pin_16*%
%TO.N,GP5*%
X122806255Y-101265000D03*
%TO.P,J6,17,Pin_17*%
%TO.N,GND*%
X120266255Y-98725000D03*
%TO.P,J6,18,Pin_18*%
%TO.N,VDD*%
X120266255Y-101265000D03*
%TO.P,J6,19,Pin_19*%
%TO.N,GND*%
X117726255Y-98725000D03*
%TO.P,J6,20,Pin_20*%
%TO.N,VDD*%
X117726255Y-101265000D03*
%TD*%
D15*
%TO.P,D1,1,K*%
%TO.N,VDD*%
X134000000Y-117500000D03*
D14*
%TO.P,D1,2,A*%
%TO.N,Net-(D1-Pad2)*%
X123840000Y-117500000D03*
%TD*%
D11*
%TO.P,J1,3,Pin_3*%
%TO.N,UART_RX*%
X141817000Y-127000000D03*
%TO.P,J1,2,Pin_2*%
%TO.N,UART_TX*%
X139277000Y-127000000D03*
D10*
%TO.P,J1,1,Pin_1*%
%TO.N,GND*%
X136737000Y-127000000D03*
%TD*%
D11*
%TO.P,J2,2,Pin_2*%
%TO.N,Net-(D1-Pad2)*%
X118527000Y-127000000D03*
D10*
%TO.P,J2,1,Pin_1*%
%TO.N,GND*%
X115987000Y-127000000D03*
%TD*%
D13*
%TO.P,R1,1*%
%TO.N,VDD*%
X153250000Y-106650000D03*
D14*
%TO.P,R1,2*%
%TO.N,GP28*%
X153250000Y-119350000D03*
%TD*%
D12*
%TO.P,SW4,1,1*%
%TO.N,GND*%
X159250000Y-99000000D03*
X152750000Y-99000000D03*
%TO.P,SW4,2,2*%
%TO.N,GP27*%
X159250000Y-94500000D03*
X152750000Y-94500000D03*
%TD*%
D13*
%TO.P,R3,1*%
%TO.N,VDD*%
X106000000Y-119350000D03*
D14*
%TO.P,R3,2*%
%TO.N,GP14*%
X106000000Y-106650000D03*
%TD*%
D13*
%TO.P,R2,1*%
%TO.N,VDD*%
X100000000Y-106650000D03*
D14*
%TO.P,R2,2*%
%TO.N,GP13*%
X100000000Y-119350000D03*
%TD*%
D12*
%TO.P,SW2,1,1*%
%TO.N,GND*%
X99750000Y-131000000D03*
X106250000Y-131000000D03*
%TO.P,SW2,2,2*%
%TO.N,GP13*%
X106250000Y-126500000D03*
X99750000Y-126500000D03*
%TD*%
D16*
%TO.P,J3,20,Pin_20*%
%TO.N,GND*%
X116342000Y-108204000D03*
%TO.P,J3,19,Pin_19*%
%TO.N,SWDIO*%
X115072000Y-108204000D03*
%TO.P,J3,18,Pin_18*%
%TO.N,VDD*%
X116342000Y-109474000D03*
%TO.P,J3,17,Pin_17*%
%TO.N,SWCLK*%
X115072000Y-109474000D03*
%TO.P,J3,16,Pin_16*%
%TO.N,SCL*%
X116342000Y-110744000D03*
%TO.P,J3,15,Pin_15*%
%TO.N,GP15*%
X115072000Y-110744000D03*
%TO.P,J3,14,Pin_14*%
%TO.N,SDA*%
X116342000Y-112014000D03*
%TO.P,J3,13,Pin_13*%
%TO.N,GP14*%
X115072000Y-112014000D03*
%TO.P,J3,12,Pin_12*%
%TO.N,GP5*%
X116342000Y-113284000D03*
%TO.P,J3,11,Pin_11*%
%TO.N,GP13*%
X115072000Y-113284000D03*
%TO.P,J3,10,Pin_10*%
%TO.N,GP4*%
X116342000Y-114554000D03*
%TO.P,J3,9,Pin_9*%
%TO.N,LCD_RST*%
X115072000Y-114554000D03*
%TO.P,J3,8,Pin_8*%
%TO.N,GP3*%
X116342000Y-115824000D03*
%TO.P,J3,7,Pin_7*%
%TO.N,LCD_DIN*%
X115072000Y-115824000D03*
%TO.P,J3,6,Pin_6*%
%TO.N,GP2*%
X116342000Y-117094000D03*
%TO.P,J3,5,Pin_5*%
%TO.N,LCD_CLK*%
X115072000Y-117094000D03*
%TO.P,J3,4,Pin_4*%
%TO.N,UART_RX*%
X116342000Y-118364000D03*
%TO.P,J3,3,Pin_3*%
%TO.N,LCD_CS*%
X115072000Y-118364000D03*
%TO.P,J3,2,Pin_2*%
%TO.N,UART_TX*%
X116342000Y-119634000D03*
D17*
%TO.P,J3,1,Pin_1*%
%TO.N,LCD_DC*%
X115072000Y-119634000D03*
%TD*%
%TO.P,J4,1,Pin_1*%
%TO.N,GND*%
X141986000Y-119634000D03*
D16*
%TO.P,J4,2,Pin_2*%
X143256000Y-119634000D03*
%TO.P,J4,3,Pin_3*%
%TO.N,VDD*%
X141986000Y-118364000D03*
%TO.P,J4,4,Pin_4*%
%TO.N,AREF*%
X143256000Y-118364000D03*
%TO.P,J4,5,Pin_5*%
%TO.N,IMU_INT1*%
X141986000Y-117094000D03*
%TO.P,J4,6,Pin_6*%
%TO.N,BOOT*%
X143256000Y-117094000D03*
%TO.P,J4,7,Pin_7*%
%TO.N,GP22*%
X141986000Y-115824000D03*
%TO.P,J4,8,Pin_8*%
%TO.N,RUN*%
X143256000Y-115824000D03*
%TO.P,J4,9,Pin_9*%
%TO.N,GP21*%
X141986000Y-114554000D03*
%TO.P,J4,10,Pin_10*%
%TO.N,BAT_ADC*%
X143256000Y-114554000D03*
%TO.P,J4,11,Pin_11*%
%TO.N,GP20*%
X141986000Y-113284000D03*
%TO.P,J4,12,Pin_12*%
%TO.N,GP28*%
X143256000Y-113284000D03*
%TO.P,J4,13,Pin_13*%
%TO.N,GP19*%
X141986000Y-112014000D03*
%TO.P,J4,14,Pin_14*%
%TO.N,GP27*%
X143256000Y-112014000D03*
%TO.P,J4,15,Pin_15*%
%TO.N,GP18*%
X141986000Y-110744000D03*
%TO.P,J4,16,Pin_16*%
%TO.N,GP26*%
X143256000Y-110744000D03*
%TO.P,J4,17,Pin_17*%
%TO.N,GP17*%
X141986000Y-109474000D03*
%TO.P,J4,18,Pin_18*%
%TO.N,LCD_BL*%
X143256000Y-109474000D03*
%TO.P,J4,19,Pin_19*%
%TO.N,GP16*%
X141986000Y-108204000D03*
%TO.P,J4,20,Pin_20*%
%TO.N,IMU_INT2*%
X143256000Y-108204000D03*
%TD*%
D18*
%TO.N,BAT_ADC*%
X144500000Y-105250000D03*
%TO.N,VDD*%
X144250000Y-122500000D03*
X137750000Y-123500000D03*
%TO.N,SCL*%
X127000000Y-121500000D03*
%TO.N,SDA*%
X124250000Y-123500000D03*
%TO.N,SCL*%
X130250000Y-124500000D03*
%TO.N,SDA*%
X128000000Y-124500000D03*
%TO.N,VDD*%
X126250000Y-123500000D03*
X150000000Y-116000000D03*
X120090000Y-108340000D03*
%TO.N,UART_TX*%
X135250000Y-120250000D03*
%TO.N,UART_RX*%
X136750000Y-120000000D03*
%TO.N,GP18*%
X132250000Y-111000000D03*
%TD*%
D19*
%TO.N,GND*%
X99750000Y-94500000D02*
X106160000Y-94500000D01*
X116500000Y-97450000D02*
X116500000Y-100670000D01*
X116500000Y-100670000D02*
X116500000Y-108000000D01*
X113550000Y-94500000D02*
X116500000Y-97450000D01*
X116500000Y-100086254D02*
X116500000Y-100670000D01*
X106250000Y-94500000D02*
X113550000Y-94500000D01*
%TO.N,GP3*%
X118750000Y-112771436D02*
X127825718Y-103695718D01*
%TO.N,VDD*%
X117726255Y-101265000D02*
X119250000Y-102788746D01*
%TO.N,GP4*%
X118192859Y-112692859D02*
X125346255Y-105539463D01*
%TO.N,VDD*%
X119250000Y-102788746D02*
X119250000Y-107500000D01*
%TO.N,GP19*%
X139750000Y-102086256D02*
X139968128Y-101868128D01*
X139750000Y-111364282D02*
X139750000Y-102086256D01*
X140740718Y-112355000D02*
X139750000Y-111364282D01*
X141645000Y-112355000D02*
X140740718Y-112355000D01*
X141986000Y-112014000D02*
X141645000Y-112355000D01*
%TO.N,BAT_ADC*%
X146250000Y-107000000D02*
X144500000Y-105250000D01*
X146250000Y-113500000D02*
X146250000Y-107000000D01*
X145196000Y-114554000D02*
X146250000Y-113500000D01*
X143256000Y-114554000D02*
X145196000Y-114554000D01*
%TO.N,AREF*%
X144145000Y-118364000D02*
X143256000Y-118364000D01*
X148825969Y-117788313D02*
X147909282Y-118705000D01*
X148825969Y-104325969D02*
X148825969Y-117788313D01*
X147909282Y-118705000D02*
X144486000Y-118705000D01*
X143250000Y-98750000D02*
X148825969Y-104325969D01*
X140586255Y-98750000D02*
X143250000Y-98750000D01*
X144486000Y-118705000D02*
X144145000Y-118364000D01*
%TO.N,RUN*%
X139086255Y-100000000D02*
X137836255Y-98750000D01*
X148376449Y-104512167D02*
X143864282Y-100000000D01*
X148376449Y-114873551D02*
X148376449Y-104512167D01*
X147085000Y-116165000D02*
X148376449Y-114873551D01*
X143256000Y-115824000D02*
X143597000Y-116165000D01*
X143597000Y-116165000D02*
X147085000Y-116165000D01*
X143864282Y-100000000D02*
X139086255Y-100000000D01*
%TO.N,GP18*%
X132205489Y-102487489D02*
X131600766Y-101882766D01*
X131600766Y-101882766D02*
X131600766Y-100047234D01*
X130336255Y-98750000D02*
X131617128Y-100030872D01*
X131600766Y-100047234D02*
X131617128Y-100030872D01*
X132205489Y-110794511D02*
X132205489Y-102487489D01*
%TO.N,GP4*%
X125346255Y-101265000D02*
X125346255Y-105539463D01*
%TO.N,GP3*%
X127836255Y-103685181D02*
X127825718Y-103695718D01*
X127836255Y-101250000D02*
X127836255Y-103685181D01*
%TO.N,GND*%
X116500000Y-100086254D02*
X117836255Y-98750000D01*
X120678000Y-125250000D02*
X122428000Y-127000000D01*
X117762000Y-125250000D02*
X120678000Y-125250000D01*
X122428000Y-127000000D02*
X123952000Y-127000000D01*
X125730000Y-128778000D02*
X123952000Y-127000000D01*
X135128000Y-128778000D02*
X125730000Y-128778000D01*
X136737000Y-127169000D02*
X135128000Y-128778000D01*
X136475000Y-123500000D02*
X136475000Y-125079000D01*
X136475000Y-125079000D02*
X136762000Y-125366000D01*
X136762000Y-125366000D02*
X136762000Y-127500000D01*
%TO.N,SDA*%
X125250000Y-124500000D02*
X124250000Y-123500000D01*
X128262000Y-124500000D02*
X125250000Y-124500000D01*
%TO.N,GND*%
X145750000Y-126750000D02*
X152750000Y-126750000D01*
X144000000Y-128500000D02*
X145750000Y-126750000D01*
X136762000Y-127500000D02*
X137762000Y-128500000D01*
X137762000Y-128500000D02*
X144262000Y-128500000D01*
%TO.N,VDD*%
X143250000Y-123500000D02*
X144250000Y-122500000D01*
X137750000Y-123500000D02*
X143250000Y-123500000D01*
X119250000Y-107500000D02*
X120090000Y-108340000D01*
%TO.N,SCL*%
X127250000Y-121500000D02*
X127000000Y-121500000D01*
X130250000Y-124500000D02*
X127250000Y-121500000D01*
%TO.N,GP5*%
X117000000Y-113250000D02*
X116250000Y-113250000D01*
X123250000Y-107000000D02*
X117000000Y-113250000D01*
X123250000Y-101500000D02*
X123250000Y-107000000D01*
%TO.N,GP4*%
X118192859Y-112692859D02*
X118192859Y-113807141D01*
X117500000Y-114500000D02*
X116500000Y-114500000D01*
X118192859Y-113807141D02*
X117500000Y-114500000D01*
%TO.N,GP3*%
X117750000Y-116000000D02*
X116250000Y-116000000D01*
X118750000Y-115000000D02*
X117750000Y-116000000D01*
X118750000Y-112771436D02*
X118750000Y-115000000D01*
%TO.N,GP2*%
X119500000Y-112750000D02*
X119453577Y-112703577D01*
X117656000Y-117094000D02*
X119500000Y-115250000D01*
X119453577Y-112703577D02*
X130907154Y-101250000D01*
X116342000Y-117094000D02*
X117656000Y-117094000D01*
X119500000Y-115250000D02*
X119500000Y-112750000D01*
%TO.N,UART_RX*%
X134250000Y-119800480D02*
X118800480Y-119800480D01*
X117250000Y-118250000D02*
X116250000Y-118250000D01*
X135750000Y-119500000D02*
X134550480Y-119500000D01*
X136250000Y-120000000D02*
X135750000Y-119500000D01*
X136750000Y-120000000D02*
X136250000Y-120000000D01*
X134550480Y-119500000D02*
X134250000Y-119800480D01*
X118800480Y-119800480D02*
X117250000Y-118250000D01*
%TO.N,UART_TX*%
X116750000Y-120250000D02*
X116250000Y-119750000D01*
X135250000Y-120250000D02*
X116750000Y-120250000D01*
%TO.N,VDD*%
X124750000Y-121750000D02*
X126250000Y-123250000D01*
X126250000Y-123250000D02*
X126250000Y-123500000D01*
%TO.N,GND*%
X116012000Y-127000000D02*
X117762000Y-125250000D01*
X111570000Y-131000000D02*
X115570000Y-127000000D01*
X106250000Y-131000000D02*
X111570000Y-131000000D01*
X141986000Y-119634000D02*
X143256000Y-119634000D01*
X141478000Y-119634000D02*
X141112000Y-120000000D01*
X139975000Y-120000000D02*
X141112000Y-120000000D01*
X141986000Y-119634000D02*
X141478000Y-119634000D01*
X143597000Y-119975000D02*
X147275000Y-119975000D01*
X143256000Y-119634000D02*
X143597000Y-119975000D01*
%TO.N,VDD*%
X141645000Y-118705000D02*
X141986000Y-118364000D01*
X135455000Y-118705000D02*
X141645000Y-118705000D01*
X134250000Y-117500000D02*
X135455000Y-118705000D01*
%TO.N,GP22*%
X141645000Y-116165000D02*
X141986000Y-115824000D01*
X140415000Y-116165000D02*
X141645000Y-116165000D01*
X133380000Y-109130000D02*
X140415000Y-116165000D01*
X133380000Y-101265000D02*
X133380000Y-109130000D01*
%TO.N,GP21*%
X141375000Y-114895000D02*
X141645000Y-114895000D01*
X136000000Y-109520000D02*
X141375000Y-114895000D01*
X141645000Y-114895000D02*
X141986000Y-114554000D01*
X136000000Y-101250000D02*
X136000000Y-109520000D01*
%TO.N,GP20*%
X141645000Y-113625000D02*
X141986000Y-113284000D01*
X141375000Y-113625000D02*
X141645000Y-113625000D01*
%TO.N,VDD*%
X109250000Y-119500000D02*
X106000000Y-119500000D01*
D20*
X120266255Y-101265000D02*
X117851255Y-101265000D01*
D19*
X159000000Y-119500000D02*
X155500000Y-116000000D01*
X116000000Y-121250000D02*
X111000000Y-121250000D01*
X106000000Y-119350000D02*
X106000000Y-117000000D01*
X159000000Y-116750000D02*
X152750000Y-110500000D01*
X111000000Y-121250000D02*
X109250000Y-119500000D01*
X155500000Y-116000000D02*
X150000000Y-116000000D01*
X159000000Y-119350000D02*
X159000000Y-116750000D01*
X152750000Y-110500000D02*
X152750000Y-106500000D01*
X124750000Y-121750000D02*
X116500000Y-121750000D01*
X100000000Y-111000000D02*
X100000000Y-106250000D01*
X116500000Y-121750000D02*
X116000000Y-121250000D01*
X106000000Y-117000000D02*
X100000000Y-111000000D01*
%TO.N,GP20*%
X138500000Y-110750000D02*
X138500000Y-101250000D01*
X141375000Y-113625000D02*
X138500000Y-110750000D01*
%TO.N,GND*%
X149275489Y-117974511D02*
X147275000Y-119975000D01*
X152750000Y-126500000D02*
X159250000Y-126500000D01*
X149275489Y-107724511D02*
X149275489Y-117974511D01*
X100000000Y-94250000D02*
X97500000Y-96750000D01*
X99750000Y-131000000D02*
X97500000Y-128750000D01*
D20*
X117726255Y-98725000D02*
X120311255Y-98725000D01*
D19*
X152750000Y-99000000D02*
X152750000Y-104250000D01*
X159250000Y-99000000D02*
X152750000Y-99000000D01*
X136475000Y-123500000D02*
X139975000Y-120000000D01*
X152750000Y-104250000D02*
X149275489Y-107724511D01*
X99750000Y-131000000D02*
X107000000Y-131000000D01*
X97500000Y-96750000D02*
X97500000Y-128750000D01*
%TO.N,GP13*%
X100000000Y-119350000D02*
X100000000Y-126250000D01*
X106250000Y-126500000D02*
X99750000Y-126500000D01*
%TO.N,GP14*%
X106000000Y-99000000D02*
X106000000Y-107000000D01*
X99750000Y-99000000D02*
X105750000Y-99000000D01*
%TO.N,GP28*%
X158750000Y-123000000D02*
X155750000Y-123000000D01*
X152750000Y-131250000D02*
X159500000Y-131250000D01*
X161500000Y-129250000D02*
X161500000Y-125750000D01*
X161500000Y-125750000D02*
X158750000Y-123000000D01*
X155750000Y-123000000D02*
X153000000Y-120250000D01*
X159500000Y-131250000D02*
X161500000Y-129250000D01*
%TO.N,GP27*%
X159000000Y-104500000D02*
X162000000Y-101500000D01*
X162000000Y-101500000D02*
X162000000Y-97500000D01*
X159250000Y-94500000D02*
X152750000Y-94500000D01*
X159000000Y-106650000D02*
X159000000Y-104500000D01*
X162000000Y-97500000D02*
X159000000Y-94500000D01*
%TD*%
M02*
