%TF.GenerationSoftware,KiCad,Pcbnew,(6.0.5)*%
%TF.CreationDate,2023-12-03T22:55:10-05:00*%
%TF.ProjectId,lcd_128_io_board,6c63645f-3132-4385-9f69-6f5f626f6172,rev?*%
%TF.SameCoordinates,Original*%
%TF.FileFunction,Copper,L2,Bot*%
%TF.FilePolarity,Positive*%
%FSLAX46Y46*%
G04 Gerber Fmt 4.6, Leading zero omitted, Abs format (unit mm)*
G04 Created by KiCad (PCBNEW (6.0.5)) date 2023-12-03 22:55:10*
%MOMM*%
%LPD*%
G01*
G04 APERTURE LIST*
%TA.AperFunction,ComponentPad*%
%ADD10R,1.700000X1.700000*%
%TD*%
%TA.AperFunction,ComponentPad*%
%ADD11O,1.700000X1.700000*%
%TD*%
%TA.AperFunction,ComponentPad*%
%ADD12C,2.000000*%
%TD*%
%TA.AperFunction,ComponentPad*%
%ADD13C,2.400000*%
%TD*%
%TA.AperFunction,ComponentPad*%
%ADD14O,2.400000X2.400000*%
%TD*%
%TA.AperFunction,ComponentPad*%
%ADD15R,2.400000X2.400000*%
%TD*%
%TA.AperFunction,ComponentPad*%
%ADD16O,1.000000X1.000000*%
%TD*%
%TA.AperFunction,ComponentPad*%
%ADD17R,1.000000X1.000000*%
%TD*%
%TA.AperFunction,ViaPad*%
%ADD18C,0.800000*%
%TD*%
%TA.AperFunction,Conductor*%
%ADD19C,0.250000*%
%TD*%
G04 APERTURE END LIST*
D10*
%TO.P,J5,1,Pin_1*%
%TO.N,GND*%
X123962000Y-127000000D03*
D11*
%TO.P,J5,2,Pin_2*%
%TO.N,VDD*%
X126502000Y-127000000D03*
%TO.P,J5,3,Pin_3*%
%TO.N,SDA*%
X129042000Y-127000000D03*
%TO.P,J5,4,Pin_4*%
%TO.N,SCL*%
X131582000Y-127000000D03*
%TD*%
D12*
%TO.P,SW1,1,1*%
%TO.N,GND*%
X159250000Y-126500000D03*
X152750000Y-126500000D03*
%TO.P,SW1,2,2*%
%TO.N,GP28*%
X159250000Y-131000000D03*
X152750000Y-131000000D03*
%TD*%
D13*
%TO.P,R4,1*%
%TO.N,VDD*%
X159250000Y-119350000D03*
D14*
%TO.P,R4,2*%
%TO.N,GP27*%
X159250000Y-106650000D03*
%TD*%
D12*
%TO.P,SW3,1,1*%
%TO.N,GND*%
X99750000Y-94500000D03*
X106250000Y-94500000D03*
%TO.P,SW3,2,2*%
%TO.N,GP14*%
X99750000Y-99000000D03*
X106250000Y-99000000D03*
%TD*%
D10*
%TO.P,J6,1,Pin_1*%
%TO.N,AREF*%
X140586255Y-98725000D03*
D11*
%TO.P,J6,2,Pin_2*%
%TO.N,GP19*%
X140586255Y-101265000D03*
%TO.P,J6,3,Pin_3*%
%TO.N,RUN*%
X138046255Y-98725000D03*
%TO.P,J6,4,Pin_4*%
%TO.N,GP20*%
X138046255Y-101265000D03*
%TO.P,J6,5,Pin_5*%
%TO.N,BAT_ADC*%
X135506255Y-98725000D03*
%TO.P,J6,6,Pin_6*%
%TO.N,GP21*%
X135506255Y-101265000D03*
%TO.P,J6,7,Pin_7*%
%TO.N,GP26*%
X132966255Y-98725000D03*
%TO.P,J6,8,Pin_8*%
%TO.N,GP22*%
X132966255Y-101265000D03*
%TO.P,J6,9,Pin_9*%
%TO.N,GP18*%
X130426255Y-98725000D03*
%TO.P,J6,10,Pin_10*%
%TO.N,GP2*%
X130426255Y-101265000D03*
%TO.P,J6,11,Pin_11*%
%TO.N,GP17*%
X127886255Y-98725000D03*
%TO.P,J6,12,Pin_12*%
%TO.N,GP3*%
X127886255Y-101265000D03*
%TO.P,J6,13,Pin_13*%
%TO.N,GP16*%
X125346255Y-98725000D03*
%TO.P,J6,14,Pin_14*%
%TO.N,GP4*%
X125346255Y-101265000D03*
%TO.P,J6,15,Pin_15*%
%TO.N,GP15*%
X122806255Y-98725000D03*
%TO.P,J6,16,Pin_16*%
%TO.N,GP5*%
X122806255Y-101265000D03*
%TO.P,J6,17,Pin_17*%
%TO.N,GND*%
X120266255Y-98725000D03*
%TO.P,J6,18,Pin_18*%
%TO.N,VDD*%
X120266255Y-101265000D03*
%TO.P,J6,19,Pin_19*%
%TO.N,GND*%
X117726255Y-98725000D03*
%TO.P,J6,20,Pin_20*%
%TO.N,VDD*%
X117726255Y-101265000D03*
%TD*%
D15*
%TO.P,D1,1,K*%
%TO.N,VDD*%
X134000000Y-117500000D03*
D14*
%TO.P,D1,2,A*%
%TO.N,Net-(D1-Pad2)*%
X123840000Y-117500000D03*
%TD*%
D11*
%TO.P,J1,3,Pin_3*%
%TO.N,UART_RX*%
X141817000Y-127000000D03*
%TO.P,J1,2,Pin_2*%
%TO.N,UART_TX*%
X139277000Y-127000000D03*
D10*
%TO.P,J1,1,Pin_1*%
%TO.N,GND*%
X136737000Y-127000000D03*
%TD*%
D11*
%TO.P,J2,2,Pin_2*%
%TO.N,Net-(D1-Pad2)*%
X118527000Y-127000000D03*
D10*
%TO.P,J2,1,Pin_1*%
%TO.N,GND*%
X115987000Y-127000000D03*
%TD*%
D13*
%TO.P,R1,1*%
%TO.N,VDD*%
X153250000Y-106650000D03*
D14*
%TO.P,R1,2*%
%TO.N,GP28*%
X153250000Y-119350000D03*
%TD*%
D12*
%TO.P,SW4,1,1*%
%TO.N,GND*%
X159250000Y-99000000D03*
X152750000Y-99000000D03*
%TO.P,SW4,2,2*%
%TO.N,GP27*%
X159250000Y-94500000D03*
X152750000Y-94500000D03*
%TD*%
D13*
%TO.P,R3,1*%
%TO.N,VDD*%
X106000000Y-119350000D03*
D14*
%TO.P,R3,2*%
%TO.N,GP14*%
X106000000Y-106650000D03*
%TD*%
D13*
%TO.P,R2,1*%
%TO.N,VDD*%
X100000000Y-106650000D03*
D14*
%TO.P,R2,2*%
%TO.N,GP13*%
X100000000Y-119350000D03*
%TD*%
D12*
%TO.P,SW2,1,1*%
%TO.N,GND*%
X99750000Y-131000000D03*
X106250000Y-131000000D03*
%TO.P,SW2,2,2*%
%TO.N,GP13*%
X106250000Y-126500000D03*
X99750000Y-126500000D03*
%TD*%
D16*
%TO.P,J3,20,Pin_20*%
%TO.N,GND*%
X116342000Y-108204000D03*
%TO.P,J3,19,Pin_19*%
%TO.N,SWDIO*%
X115072000Y-108204000D03*
%TO.P,J3,18,Pin_18*%
%TO.N,VDD*%
X116342000Y-109474000D03*
%TO.P,J3,17,Pin_17*%
%TO.N,SWCLK*%
X115072000Y-109474000D03*
%TO.P,J3,16,Pin_16*%
%TO.N,SCL*%
X116342000Y-110744000D03*
%TO.P,J3,15,Pin_15*%
%TO.N,GP15*%
X115072000Y-110744000D03*
%TO.P,J3,14,Pin_14*%
%TO.N,SDA*%
X116342000Y-112014000D03*
%TO.P,J3,13,Pin_13*%
%TO.N,GP14*%
X115072000Y-112014000D03*
%TO.P,J3,12,Pin_12*%
%TO.N,GP5*%
X116342000Y-113284000D03*
%TO.P,J3,11,Pin_11*%
%TO.N,GP13*%
X115072000Y-113284000D03*
%TO.P,J3,10,Pin_10*%
%TO.N,GP4*%
X116342000Y-114554000D03*
%TO.P,J3,9,Pin_9*%
%TO.N,LCD_RST*%
X115072000Y-114554000D03*
%TO.P,J3,8,Pin_8*%
%TO.N,GP3*%
X116342000Y-115824000D03*
%TO.P,J3,7,Pin_7*%
%TO.N,LCD_DIN*%
X115072000Y-115824000D03*
%TO.P,J3,6,Pin_6*%
%TO.N,GP2*%
X116342000Y-117094000D03*
%TO.P,J3,5,Pin_5*%
%TO.N,LCD_CLK*%
X115072000Y-117094000D03*
%TO.P,J3,4,Pin_4*%
%TO.N,UART_RX*%
X116342000Y-118364000D03*
%TO.P,J3,3,Pin_3*%
%TO.N,LCD_CS*%
X115072000Y-118364000D03*
%TO.P,J3,2,Pin_2*%
%TO.N,UART_TX*%
X116342000Y-119634000D03*
D17*
%TO.P,J3,1,Pin_1*%
%TO.N,LCD_DC*%
X115072000Y-119634000D03*
%TD*%
%TO.P,J4,1,Pin_1*%
%TO.N,GND*%
X141986000Y-119634000D03*
D16*
%TO.P,J4,2,Pin_2*%
X143256000Y-119634000D03*
%TO.P,J4,3,Pin_3*%
%TO.N,VDD*%
X141986000Y-118364000D03*
%TO.P,J4,4,Pin_4*%
%TO.N,AREF*%
X143256000Y-118364000D03*
%TO.P,J4,5,Pin_5*%
%TO.N,IMU_INT1*%
X141986000Y-117094000D03*
%TO.P,J4,6,Pin_6*%
%TO.N,BOOT*%
X143256000Y-117094000D03*
%TO.P,J4,7,Pin_7*%
%TO.N,GP22*%
X141986000Y-115824000D03*
%TO.P,J4,8,Pin_8*%
%TO.N,RUN*%
X143256000Y-115824000D03*
%TO.P,J4,9,Pin_9*%
%TO.N,GP21*%
X141986000Y-114554000D03*
%TO.P,J4,10,Pin_10*%
%TO.N,BAT_ADC*%
X143256000Y-114554000D03*
%TO.P,J4,11,Pin_11*%
%TO.N,GP20*%
X141986000Y-113284000D03*
%TO.P,J4,12,Pin_12*%
%TO.N,GP28*%
X143256000Y-113284000D03*
%TO.P,J4,13,Pin_13*%
%TO.N,GP19*%
X141986000Y-112014000D03*
%TO.P,J4,14,Pin_14*%
%TO.N,GP27*%
X143256000Y-112014000D03*
%TO.P,J4,15,Pin_15*%
%TO.N,GP18*%
X141986000Y-110744000D03*
%TO.P,J4,16,Pin_16*%
%TO.N,GP26*%
X143256000Y-110744000D03*
%TO.P,J4,17,Pin_17*%
%TO.N,GP17*%
X141986000Y-109474000D03*
%TO.P,J4,18,Pin_18*%
%TO.N,LCD_BL*%
X143256000Y-109474000D03*
%TO.P,J4,19,Pin_19*%
%TO.N,GP16*%
X141986000Y-108204000D03*
%TO.P,J4,20,Pin_20*%
%TO.N,IMU_INT2*%
X143256000Y-108204000D03*
%TD*%
D18*
%TO.N,BAT_ADC*%
X144500000Y-105250000D03*
%TO.N,VDD*%
X144250000Y-122500000D03*
X137750000Y-123500000D03*
%TO.N,SCL*%
X127000000Y-121500000D03*
%TO.N,SDA*%
X124250000Y-123500000D03*
%TO.N,SCL*%
X130250000Y-124500000D03*
%TO.N,SDA*%
X128000000Y-124500000D03*
%TO.N,VDD*%
X126250000Y-123500000D03*
X150000000Y-116000000D03*
X120090000Y-108340000D03*
%TO.N,UART_TX*%
X135250000Y-120250000D03*
%TO.N,UART_RX*%
X136750000Y-120000000D03*
%TO.N,GP18*%
X132250000Y-111000000D03*
%TD*%
D19*
%TO.N,GP15*%
X112750000Y-98836256D02*
X114836255Y-96750000D01*
%TO.N,GP16*%
X126520766Y-99684511D02*
X126520766Y-102770766D01*
%TO.N,GP17*%
X123980766Y-97394511D02*
X123980766Y-102480766D01*
%TO.N,GP15*%
X112750000Y-109500000D02*
X112750000Y-98836256D01*
X114836255Y-96750000D02*
X121836255Y-96750000D01*
X121836255Y-96750000D02*
X122836255Y-97750000D01*
X122836255Y-97750000D02*
X122836255Y-98500000D01*
X113994000Y-110744000D02*
X112750000Y-109500000D01*
X115072000Y-110744000D02*
X113994000Y-110744000D01*
%TO.N,BAT_ADC*%
X136836255Y-100000000D02*
X135586255Y-98750000D01*
X136836255Y-103750000D02*
X136836255Y-100000000D01*
X138336255Y-105250000D02*
X136836255Y-103750000D01*
X144500000Y-105250000D02*
X138336255Y-105250000D01*
%TO.N,GP26*%
X145000000Y-108500000D02*
X145000000Y-110000000D01*
X145000000Y-110000000D02*
X144256000Y-110744000D01*
X143250000Y-106750000D02*
X145000000Y-108500000D01*
X144256000Y-110744000D02*
X143256000Y-110744000D01*
X134331744Y-104745489D02*
X136336255Y-106750000D01*
X134331744Y-100245489D02*
X134331744Y-104745489D01*
X136336255Y-106750000D02*
X143250000Y-106750000D01*
X132836255Y-98750000D02*
X134331744Y-100245489D01*
%TO.N,GP16*%
X132295000Y-108545000D02*
X141772000Y-108545000D01*
X141772000Y-108545000D02*
X141986000Y-108331000D01*
X126520766Y-102770766D02*
X132295000Y-108545000D01*
%TO.N,GP17*%
X141986000Y-109474000D02*
X141645000Y-109815000D01*
X141645000Y-109815000D02*
X131315000Y-109815000D01*
X131315000Y-109815000D02*
X123980766Y-102480766D01*
%TO.N,UART_RX*%
X141555000Y-123500000D02*
X141555000Y-126945000D01*
%TO.N,UART_TX*%
X139000000Y-123500000D02*
X139000000Y-127000000D01*
%TO.N,VDD*%
X126250000Y-123500000D02*
X137750000Y-123500000D01*
%TO.N,GP13*%
X115072000Y-113284000D02*
X106216000Y-113284000D01*
X100000000Y-119500000D02*
X106216000Y-113284000D01*
%TO.N,GP14*%
X111250000Y-112000000D02*
X115000000Y-112000000D01*
X105750000Y-106500000D02*
X111250000Y-112000000D01*
%TO.N,VDD*%
X118956000Y-109474000D02*
X120090000Y-108340000D01*
X116342000Y-109474000D02*
X118956000Y-109474000D01*
%TO.N,SCL*%
X127000000Y-117500000D02*
X120250000Y-110750000D01*
X127000000Y-121500000D02*
X127000000Y-117500000D01*
X120250000Y-110750000D02*
X116250000Y-110750000D01*
%TO.N,SDA*%
X120750000Y-112000000D02*
X116500000Y-112000000D01*
X124250000Y-123500000D02*
X125750000Y-122000000D01*
X125750000Y-122000000D02*
X125750000Y-117000000D01*
X125750000Y-117000000D02*
X120750000Y-112000000D01*
%TO.N,SCL*%
X131582000Y-125570000D02*
X130512000Y-124500000D01*
X131582000Y-127000000D02*
X131582000Y-125570000D01*
%TO.N,SDA*%
X129042000Y-125280000D02*
X128262000Y-124500000D01*
X129042000Y-127000000D02*
X129042000Y-125280000D01*
%TO.N,VDD*%
X126250000Y-123500000D02*
X126250000Y-127000000D01*
X145750000Y-121000000D02*
X144250000Y-122500000D01*
X146635718Y-121000000D02*
X145750000Y-121000000D01*
X150000000Y-116000000D02*
X150000000Y-117635718D01*
X150000000Y-117635718D02*
X146635718Y-121000000D01*
X126240000Y-123500000D02*
X126250000Y-123500000D01*
%TO.N,Net-(D1-Pad2)*%
X118110000Y-123655000D02*
X118110000Y-127000000D01*
X123750000Y-118015000D02*
X118110000Y-123655000D01*
%TO.N,GP28*%
X143256000Y-113284000D02*
X143597000Y-113625000D01*
X143597000Y-113625000D02*
X149875000Y-113625000D01*
%TO.N,GP27*%
X143256000Y-112014000D02*
X143597000Y-112355000D01*
X143597000Y-112355000D02*
X156395000Y-112355000D01*
%TO.N,GP18*%
X141645000Y-111085000D02*
X141986000Y-110744000D01*
X132085000Y-111085000D02*
X141645000Y-111085000D01*
%TO.N,GP17*%
X124375277Y-97000000D02*
X123980766Y-97394511D01*
X126086255Y-97000000D02*
X124375277Y-97000000D01*
X127836255Y-98750000D02*
X126086255Y-97000000D01*
%TO.N,GP16*%
X125336255Y-98500000D02*
X126520766Y-99684511D01*
%TO.N,VDD*%
X126240000Y-123500000D02*
X132240000Y-117500000D01*
X132240000Y-117500000D02*
X134000000Y-117500000D01*
X129250000Y-117500000D02*
X132240000Y-117500000D01*
X120090000Y-108340000D02*
X129250000Y-117500000D01*
%TO.N,UART_TX*%
X135750000Y-120250000D02*
X139000000Y-123500000D01*
X135250000Y-120250000D02*
X135750000Y-120250000D01*
%TO.N,UART_RX*%
X138000000Y-121250000D02*
X136750000Y-120000000D01*
X141555000Y-123500000D02*
X139305000Y-121250000D01*
X139305000Y-121250000D02*
X138000000Y-121250000D01*
%TO.N,GP28*%
X153250000Y-117000000D02*
X153250000Y-119250000D01*
X149875000Y-113625000D02*
X153250000Y-117000000D01*
%TO.N,GP27*%
X159250000Y-109500000D02*
X159250000Y-107000000D01*
X156395000Y-112355000D02*
X159250000Y-109500000D01*
%TD*%
M02*
