%TF.GenerationSoftware,KiCad,Pcbnew,(6.0.5)*%
%TF.CreationDate,2023-12-03T22:55:10-05:00*%
%TF.ProjectId,lcd_128_io_board,6c63645f-3132-4385-9f69-6f5f626f6172,rev?*%
%TF.SameCoordinates,Original*%
%TF.FileFunction,Legend,Top*%
%TF.FilePolarity,Positive*%
%FSLAX46Y46*%
G04 Gerber Fmt 4.6, Leading zero omitted, Abs format (unit mm)*
G04 Created by KiCad (PCBNEW (6.0.5)) date 2023-12-03 22:55:10*
%MOMM*%
%LPD*%
G01*
G04 APERTURE LIST*
%ADD10C,0.150000*%
%ADD11C,0.120000*%
G04 APERTURE END LIST*
D10*
X127008095Y-111847380D02*
X127008095Y-112656904D01*
X127055714Y-112752142D01*
X127103333Y-112799761D01*
X127198571Y-112847380D01*
X127389047Y-112847380D01*
X127484285Y-112799761D01*
X127531904Y-112752142D01*
X127579523Y-112656904D01*
X127579523Y-111847380D01*
X128008095Y-112799761D02*
X128150952Y-112847380D01*
X128389047Y-112847380D01*
X128484285Y-112799761D01*
X128531904Y-112752142D01*
X128579523Y-112656904D01*
X128579523Y-112561666D01*
X128531904Y-112466428D01*
X128484285Y-112418809D01*
X128389047Y-112371190D01*
X128198571Y-112323571D01*
X128103333Y-112275952D01*
X128055714Y-112228333D01*
X128008095Y-112133095D01*
X128008095Y-112037857D01*
X128055714Y-111942619D01*
X128103333Y-111895000D01*
X128198571Y-111847380D01*
X128436666Y-111847380D01*
X128579523Y-111895000D01*
X129341428Y-112323571D02*
X129484285Y-112371190D01*
X129531904Y-112418809D01*
X129579523Y-112514047D01*
X129579523Y-112656904D01*
X129531904Y-112752142D01*
X129484285Y-112799761D01*
X129389047Y-112847380D01*
X129008095Y-112847380D01*
X129008095Y-111847380D01*
X129341428Y-111847380D01*
X129436666Y-111895000D01*
X129484285Y-111942619D01*
X129531904Y-112037857D01*
X129531904Y-112133095D01*
X129484285Y-112228333D01*
X129436666Y-112275952D01*
X129341428Y-112323571D01*
X129008095Y-112323571D01*
X128270000Y-114300000D02*
X127000000Y-113665000D01*
X128270000Y-114300000D02*
X129540000Y-113665000D01*
X128270000Y-113030000D02*
X128270000Y-114300000D01*
X124698571Y-109942380D02*
X125270000Y-109942380D01*
X124984285Y-110942380D02*
X124984285Y-109942380D01*
X125603333Y-110942380D02*
X125603333Y-109942380D01*
X125603333Y-110418571D02*
X126174761Y-110418571D01*
X126174761Y-110942380D02*
X126174761Y-109942380D01*
X126650952Y-110942380D02*
X126650952Y-109942380D01*
X127079523Y-110894761D02*
X127222380Y-110942380D01*
X127460476Y-110942380D01*
X127555714Y-110894761D01*
X127603333Y-110847142D01*
X127650952Y-110751904D01*
X127650952Y-110656666D01*
X127603333Y-110561428D01*
X127555714Y-110513809D01*
X127460476Y-110466190D01*
X127270000Y-110418571D01*
X127174761Y-110370952D01*
X127127142Y-110323333D01*
X127079523Y-110228095D01*
X127079523Y-110132857D01*
X127127142Y-110037619D01*
X127174761Y-109990000D01*
X127270000Y-109942380D01*
X127508095Y-109942380D01*
X127650952Y-109990000D01*
X128793809Y-110894761D02*
X128936666Y-110942380D01*
X129174761Y-110942380D01*
X129270000Y-110894761D01*
X129317619Y-110847142D01*
X129365238Y-110751904D01*
X129365238Y-110656666D01*
X129317619Y-110561428D01*
X129270000Y-110513809D01*
X129174761Y-110466190D01*
X128984285Y-110418571D01*
X128889047Y-110370952D01*
X128841428Y-110323333D01*
X128793809Y-110228095D01*
X128793809Y-110132857D01*
X128841428Y-110037619D01*
X128889047Y-109990000D01*
X128984285Y-109942380D01*
X129222380Y-109942380D01*
X129365238Y-109990000D01*
X129793809Y-110942380D02*
X129793809Y-109942380D01*
X130270000Y-110942380D02*
X130270000Y-109942380D01*
X130508095Y-109942380D01*
X130650952Y-109990000D01*
X130746190Y-110085238D01*
X130793809Y-110180476D01*
X130841428Y-110370952D01*
X130841428Y-110513809D01*
X130793809Y-110704285D01*
X130746190Y-110799523D01*
X130650952Y-110894761D01*
X130508095Y-110942380D01*
X130270000Y-110942380D01*
X131270000Y-110418571D02*
X131603333Y-110418571D01*
X131746190Y-110942380D02*
X131270000Y-110942380D01*
X131270000Y-109942380D01*
X131746190Y-109942380D01*
X124960476Y-109148571D02*
X125103333Y-109196190D01*
X125150952Y-109243809D01*
X125198571Y-109339047D01*
X125198571Y-109481904D01*
X125150952Y-109577142D01*
X125103333Y-109624761D01*
X125008095Y-109672380D01*
X124627142Y-109672380D01*
X124627142Y-108672380D01*
X124960476Y-108672380D01*
X125055714Y-108720000D01*
X125103333Y-108767619D01*
X125150952Y-108862857D01*
X125150952Y-108958095D01*
X125103333Y-109053333D01*
X125055714Y-109100952D01*
X124960476Y-109148571D01*
X124627142Y-109148571D01*
X125817619Y-108672380D02*
X126008095Y-108672380D01*
X126103333Y-108720000D01*
X126198571Y-108815238D01*
X126246190Y-109005714D01*
X126246190Y-109339047D01*
X126198571Y-109529523D01*
X126103333Y-109624761D01*
X126008095Y-109672380D01*
X125817619Y-109672380D01*
X125722380Y-109624761D01*
X125627142Y-109529523D01*
X125579523Y-109339047D01*
X125579523Y-109005714D01*
X125627142Y-108815238D01*
X125722380Y-108720000D01*
X125817619Y-108672380D01*
X126627142Y-109386666D02*
X127103333Y-109386666D01*
X126531904Y-109672380D02*
X126865238Y-108672380D01*
X127198571Y-109672380D01*
X128103333Y-109672380D02*
X127770000Y-109196190D01*
X127531904Y-109672380D02*
X127531904Y-108672380D01*
X127912857Y-108672380D01*
X128008095Y-108720000D01*
X128055714Y-108767619D01*
X128103333Y-108862857D01*
X128103333Y-109005714D01*
X128055714Y-109100952D01*
X128008095Y-109148571D01*
X127912857Y-109196190D01*
X127531904Y-109196190D01*
X128531904Y-109672380D02*
X128531904Y-108672380D01*
X128770000Y-108672380D01*
X128912857Y-108720000D01*
X129008095Y-108815238D01*
X129055714Y-108910476D01*
X129103333Y-109100952D01*
X129103333Y-109243809D01*
X129055714Y-109434285D01*
X129008095Y-109529523D01*
X128912857Y-109624761D01*
X128770000Y-109672380D01*
X128531904Y-109672380D01*
X130484285Y-108672380D02*
X130674761Y-108672380D01*
X130770000Y-108720000D01*
X130865238Y-108815238D01*
X130912857Y-109005714D01*
X130912857Y-109339047D01*
X130865238Y-109529523D01*
X130770000Y-109624761D01*
X130674761Y-109672380D01*
X130484285Y-109672380D01*
X130389047Y-109624761D01*
X130293809Y-109529523D01*
X130246190Y-109339047D01*
X130246190Y-109005714D01*
X130293809Y-108815238D01*
X130389047Y-108720000D01*
X130484285Y-108672380D01*
X131341428Y-109672380D02*
X131341428Y-108672380D01*
X131912857Y-109672380D01*
X131912857Y-108672380D01*
X154765523Y-101100000D02*
X154670285Y-101052380D01*
X154527428Y-101052380D01*
X154384571Y-101100000D01*
X154289333Y-101195238D01*
X154241714Y-101290476D01*
X154194095Y-101480952D01*
X154194095Y-101623809D01*
X154241714Y-101814285D01*
X154289333Y-101909523D01*
X154384571Y-102004761D01*
X154527428Y-102052380D01*
X154622666Y-102052380D01*
X154765523Y-102004761D01*
X154813142Y-101957142D01*
X154813142Y-101623809D01*
X154622666Y-101623809D01*
X155241714Y-102052380D02*
X155241714Y-101052380D01*
X155622666Y-101052380D01*
X155717904Y-101100000D01*
X155765523Y-101147619D01*
X155813142Y-101242857D01*
X155813142Y-101385714D01*
X155765523Y-101480952D01*
X155717904Y-101528571D01*
X155622666Y-101576190D01*
X155241714Y-101576190D01*
X156194095Y-101147619D02*
X156241714Y-101100000D01*
X156336952Y-101052380D01*
X156575047Y-101052380D01*
X156670285Y-101100000D01*
X156717904Y-101147619D01*
X156765523Y-101242857D01*
X156765523Y-101338095D01*
X156717904Y-101480952D01*
X156146476Y-102052380D01*
X156765523Y-102052380D01*
X157098857Y-101052380D02*
X157765523Y-101052380D01*
X157336952Y-102052380D01*
X154765523Y-123452000D02*
X154670285Y-123404380D01*
X154527428Y-123404380D01*
X154384571Y-123452000D01*
X154289333Y-123547238D01*
X154241714Y-123642476D01*
X154194095Y-123832952D01*
X154194095Y-123975809D01*
X154241714Y-124166285D01*
X154289333Y-124261523D01*
X154384571Y-124356761D01*
X154527428Y-124404380D01*
X154622666Y-124404380D01*
X154765523Y-124356761D01*
X154813142Y-124309142D01*
X154813142Y-123975809D01*
X154622666Y-123975809D01*
X155241714Y-124404380D02*
X155241714Y-123404380D01*
X155622666Y-123404380D01*
X155717904Y-123452000D01*
X155765523Y-123499619D01*
X155813142Y-123594857D01*
X155813142Y-123737714D01*
X155765523Y-123832952D01*
X155717904Y-123880571D01*
X155622666Y-123928190D01*
X155241714Y-123928190D01*
X156194095Y-123499619D02*
X156241714Y-123452000D01*
X156336952Y-123404380D01*
X156575047Y-123404380D01*
X156670285Y-123452000D01*
X156717904Y-123499619D01*
X156765523Y-123594857D01*
X156765523Y-123690095D01*
X156717904Y-123832952D01*
X156146476Y-124404380D01*
X156765523Y-124404380D01*
X157336952Y-123832952D02*
X157241714Y-123785333D01*
X157194095Y-123737714D01*
X157146476Y-123642476D01*
X157146476Y-123594857D01*
X157194095Y-123499619D01*
X157241714Y-123452000D01*
X157336952Y-123404380D01*
X157527428Y-123404380D01*
X157622666Y-123452000D01*
X157670285Y-123499619D01*
X157717904Y-123594857D01*
X157717904Y-123642476D01*
X157670285Y-123737714D01*
X157622666Y-123785333D01*
X157527428Y-123832952D01*
X157336952Y-123832952D01*
X157241714Y-123880571D01*
X157194095Y-123928190D01*
X157146476Y-124023428D01*
X157146476Y-124213904D01*
X157194095Y-124309142D01*
X157241714Y-124356761D01*
X157336952Y-124404380D01*
X157527428Y-124404380D01*
X157622666Y-124356761D01*
X157670285Y-124309142D01*
X157717904Y-124213904D01*
X157717904Y-124023428D01*
X157670285Y-123928190D01*
X157622666Y-123880571D01*
X157527428Y-123832952D01*
X101679523Y-123325000D02*
X101584285Y-123277380D01*
X101441428Y-123277380D01*
X101298571Y-123325000D01*
X101203333Y-123420238D01*
X101155714Y-123515476D01*
X101108095Y-123705952D01*
X101108095Y-123848809D01*
X101155714Y-124039285D01*
X101203333Y-124134523D01*
X101298571Y-124229761D01*
X101441428Y-124277380D01*
X101536666Y-124277380D01*
X101679523Y-124229761D01*
X101727142Y-124182142D01*
X101727142Y-123848809D01*
X101536666Y-123848809D01*
X102155714Y-124277380D02*
X102155714Y-123277380D01*
X102536666Y-123277380D01*
X102631904Y-123325000D01*
X102679523Y-123372619D01*
X102727142Y-123467857D01*
X102727142Y-123610714D01*
X102679523Y-123705952D01*
X102631904Y-123753571D01*
X102536666Y-123801190D01*
X102155714Y-123801190D01*
X103679523Y-124277380D02*
X103108095Y-124277380D01*
X103393809Y-124277380D02*
X103393809Y-123277380D01*
X103298571Y-123420238D01*
X103203333Y-123515476D01*
X103108095Y-123563095D01*
X104012857Y-123277380D02*
X104631904Y-123277380D01*
X104298571Y-123658333D01*
X104441428Y-123658333D01*
X104536666Y-123705952D01*
X104584285Y-123753571D01*
X104631904Y-123848809D01*
X104631904Y-124086904D01*
X104584285Y-124182142D01*
X104536666Y-124229761D01*
X104441428Y-124277380D01*
X104155714Y-124277380D01*
X104060476Y-124229761D01*
X104012857Y-124182142D01*
X101679523Y-101100000D02*
X101584285Y-101052380D01*
X101441428Y-101052380D01*
X101298571Y-101100000D01*
X101203333Y-101195238D01*
X101155714Y-101290476D01*
X101108095Y-101480952D01*
X101108095Y-101623809D01*
X101155714Y-101814285D01*
X101203333Y-101909523D01*
X101298571Y-102004761D01*
X101441428Y-102052380D01*
X101536666Y-102052380D01*
X101679523Y-102004761D01*
X101727142Y-101957142D01*
X101727142Y-101623809D01*
X101536666Y-101623809D01*
X102155714Y-102052380D02*
X102155714Y-101052380D01*
X102536666Y-101052380D01*
X102631904Y-101100000D01*
X102679523Y-101147619D01*
X102727142Y-101242857D01*
X102727142Y-101385714D01*
X102679523Y-101480952D01*
X102631904Y-101528571D01*
X102536666Y-101576190D01*
X102155714Y-101576190D01*
X103679523Y-102052380D02*
X103108095Y-102052380D01*
X103393809Y-102052380D02*
X103393809Y-101052380D01*
X103298571Y-101195238D01*
X103203333Y-101290476D01*
X103108095Y-101338095D01*
X104536666Y-101385714D02*
X104536666Y-102052380D01*
X104298571Y-101004761D02*
X104060476Y-101719047D01*
X104679523Y-101719047D01*
X133000000Y-106190476D02*
X132952380Y-106285714D01*
X132952380Y-106428571D01*
X133000000Y-106571428D01*
X133095238Y-106666666D01*
X133190476Y-106714285D01*
X133380952Y-106761904D01*
X133523809Y-106761904D01*
X133714285Y-106714285D01*
X133809523Y-106666666D01*
X133904761Y-106571428D01*
X133952380Y-106428571D01*
X133952380Y-106333333D01*
X133904761Y-106190476D01*
X133857142Y-106142857D01*
X133523809Y-106142857D01*
X133523809Y-106333333D01*
X133952380Y-105714285D02*
X132952380Y-105714285D01*
X132952380Y-105333333D01*
X133000000Y-105238095D01*
X133047619Y-105190476D01*
X133142857Y-105142857D01*
X133285714Y-105142857D01*
X133380952Y-105190476D01*
X133428571Y-105238095D01*
X133476190Y-105333333D01*
X133476190Y-105714285D01*
X133047619Y-104761904D02*
X133000000Y-104714285D01*
X132952380Y-104619047D01*
X132952380Y-104380952D01*
X133000000Y-104285714D01*
X133047619Y-104238095D01*
X133142857Y-104190476D01*
X133238095Y-104190476D01*
X133380952Y-104238095D01*
X133952380Y-104809523D01*
X133952380Y-104190476D01*
X133047619Y-103809523D02*
X133000000Y-103761904D01*
X132952380Y-103666666D01*
X132952380Y-103428571D01*
X133000000Y-103333333D01*
X133047619Y-103285714D01*
X133142857Y-103238095D01*
X133238095Y-103238095D01*
X133380952Y-103285714D01*
X133952380Y-103857142D01*
X133952380Y-103238095D01*
X124848443Y-96441319D02*
X124800823Y-96536557D01*
X124800823Y-96679414D01*
X124848443Y-96822271D01*
X124943681Y-96917509D01*
X125038919Y-96965128D01*
X125229395Y-97012747D01*
X125372252Y-97012747D01*
X125562728Y-96965128D01*
X125657966Y-96917509D01*
X125753204Y-96822271D01*
X125800823Y-96679414D01*
X125800823Y-96584176D01*
X125753204Y-96441319D01*
X125705585Y-96393700D01*
X125372252Y-96393700D01*
X125372252Y-96584176D01*
X125800823Y-95965128D02*
X124800823Y-95965128D01*
X124800823Y-95584176D01*
X124848443Y-95488938D01*
X124896062Y-95441319D01*
X124991300Y-95393700D01*
X125134157Y-95393700D01*
X125229395Y-95441319D01*
X125277014Y-95488938D01*
X125324633Y-95584176D01*
X125324633Y-95965128D01*
X125800823Y-94441319D02*
X125800823Y-95012747D01*
X125800823Y-94727033D02*
X124800823Y-94727033D01*
X124943681Y-94822271D01*
X125038919Y-94917509D01*
X125086538Y-95012747D01*
X124800823Y-93584176D02*
X124800823Y-93774652D01*
X124848443Y-93869890D01*
X124896062Y-93917509D01*
X125038919Y-94012747D01*
X125229395Y-94060366D01*
X125610347Y-94060366D01*
X125705585Y-94012747D01*
X125753204Y-93965128D01*
X125800823Y-93869890D01*
X125800823Y-93679414D01*
X125753204Y-93584176D01*
X125705585Y-93536557D01*
X125610347Y-93488938D01*
X125372252Y-93488938D01*
X125277014Y-93536557D01*
X125229395Y-93584176D01*
X125181776Y-93679414D01*
X125181776Y-93869890D01*
X125229395Y-93965128D01*
X125277014Y-94012747D01*
X125372252Y-94060366D01*
X127336255Y-105214285D02*
X127288635Y-105309523D01*
X127288635Y-105452380D01*
X127336255Y-105595238D01*
X127431493Y-105690476D01*
X127526731Y-105738095D01*
X127717207Y-105785714D01*
X127860064Y-105785714D01*
X128050540Y-105738095D01*
X128145778Y-105690476D01*
X128241016Y-105595238D01*
X128288635Y-105452380D01*
X128288635Y-105357142D01*
X128241016Y-105214285D01*
X128193397Y-105166666D01*
X127860064Y-105166666D01*
X127860064Y-105357142D01*
X128288635Y-104738095D02*
X127288635Y-104738095D01*
X127288635Y-104357142D01*
X127336255Y-104261904D01*
X127383874Y-104214285D01*
X127479112Y-104166666D01*
X127621969Y-104166666D01*
X127717207Y-104214285D01*
X127764826Y-104261904D01*
X127812445Y-104357142D01*
X127812445Y-104738095D01*
X127288635Y-103833333D02*
X127288635Y-103214285D01*
X127669588Y-103547619D01*
X127669588Y-103404761D01*
X127717207Y-103309523D01*
X127764826Y-103261904D01*
X127860064Y-103214285D01*
X128098159Y-103214285D01*
X128193397Y-103261904D01*
X128241016Y-103309523D01*
X128288635Y-103404761D01*
X128288635Y-103690476D01*
X128241016Y-103785714D01*
X128193397Y-103833333D01*
X135514826Y-96797619D02*
X135562445Y-96654761D01*
X135610064Y-96607142D01*
X135705302Y-96559523D01*
X135848159Y-96559523D01*
X135943397Y-96607142D01*
X135991016Y-96654761D01*
X136038635Y-96750000D01*
X136038635Y-97130952D01*
X135038635Y-97130952D01*
X135038635Y-96797619D01*
X135086255Y-96702380D01*
X135133874Y-96654761D01*
X135229112Y-96607142D01*
X135324350Y-96607142D01*
X135419588Y-96654761D01*
X135467207Y-96702380D01*
X135514826Y-96797619D01*
X135514826Y-97130952D01*
X135752921Y-96178571D02*
X135752921Y-95702380D01*
X136038635Y-96273809D02*
X135038635Y-95940476D01*
X136038635Y-95607142D01*
X135038635Y-95416666D02*
X135038635Y-94845238D01*
X136038635Y-95130952D02*
X135038635Y-95130952D01*
X136133874Y-94750000D02*
X136133874Y-93988095D01*
X135752921Y-93797619D02*
X135752921Y-93321428D01*
X136038635Y-93892857D02*
X135038635Y-93559523D01*
X136038635Y-93226190D01*
X136038635Y-92892857D02*
X135038635Y-92892857D01*
X135038635Y-92654761D01*
X135086255Y-92511904D01*
X135181493Y-92416666D01*
X135276731Y-92369047D01*
X135467207Y-92321428D01*
X135610064Y-92321428D01*
X135800540Y-92369047D01*
X135895778Y-92416666D01*
X135991016Y-92511904D01*
X136038635Y-92654761D01*
X136038635Y-92892857D01*
X135943397Y-91321428D02*
X135991016Y-91369047D01*
X136038635Y-91511904D01*
X136038635Y-91607142D01*
X135991016Y-91750000D01*
X135895778Y-91845238D01*
X135800540Y-91892857D01*
X135610064Y-91940476D01*
X135467207Y-91940476D01*
X135276731Y-91892857D01*
X135181493Y-91845238D01*
X135086255Y-91750000D01*
X135038635Y-91607142D01*
X135038635Y-91511904D01*
X135086255Y-91369047D01*
X135133874Y-91321428D01*
X135500000Y-106190476D02*
X135452380Y-106285714D01*
X135452380Y-106428571D01*
X135500000Y-106571428D01*
X135595238Y-106666666D01*
X135690476Y-106714285D01*
X135880952Y-106761904D01*
X136023809Y-106761904D01*
X136214285Y-106714285D01*
X136309523Y-106666666D01*
X136404761Y-106571428D01*
X136452380Y-106428571D01*
X136452380Y-106333333D01*
X136404761Y-106190476D01*
X136357142Y-106142857D01*
X136023809Y-106142857D01*
X136023809Y-106333333D01*
X136452380Y-105714285D02*
X135452380Y-105714285D01*
X135452380Y-105333333D01*
X135500000Y-105238095D01*
X135547619Y-105190476D01*
X135642857Y-105142857D01*
X135785714Y-105142857D01*
X135880952Y-105190476D01*
X135928571Y-105238095D01*
X135976190Y-105333333D01*
X135976190Y-105714285D01*
X135547619Y-104761904D02*
X135500000Y-104714285D01*
X135452380Y-104619047D01*
X135452380Y-104380952D01*
X135500000Y-104285714D01*
X135547619Y-104238095D01*
X135642857Y-104190476D01*
X135738095Y-104190476D01*
X135880952Y-104238095D01*
X136452380Y-104809523D01*
X136452380Y-104190476D01*
X136452380Y-103238095D02*
X136452380Y-103809523D01*
X136452380Y-103523809D02*
X135452380Y-103523809D01*
X135595238Y-103619047D01*
X135690476Y-103714285D01*
X135738095Y-103809523D01*
X129836255Y-105214285D02*
X129788635Y-105309523D01*
X129788635Y-105452380D01*
X129836255Y-105595238D01*
X129931493Y-105690476D01*
X130026731Y-105738095D01*
X130217207Y-105785714D01*
X130360064Y-105785714D01*
X130550540Y-105738095D01*
X130645778Y-105690476D01*
X130741016Y-105595238D01*
X130788635Y-105452380D01*
X130788635Y-105357142D01*
X130741016Y-105214285D01*
X130693397Y-105166666D01*
X130360064Y-105166666D01*
X130360064Y-105357142D01*
X130788635Y-104738095D02*
X129788635Y-104738095D01*
X129788635Y-104357142D01*
X129836255Y-104261904D01*
X129883874Y-104214285D01*
X129979112Y-104166666D01*
X130121969Y-104166666D01*
X130217207Y-104214285D01*
X130264826Y-104261904D01*
X130312445Y-104357142D01*
X130312445Y-104738095D01*
X129883874Y-103785714D02*
X129836255Y-103738095D01*
X129788635Y-103642857D01*
X129788635Y-103404761D01*
X129836255Y-103309523D01*
X129883874Y-103261904D01*
X129979112Y-103214285D01*
X130074350Y-103214285D01*
X130217207Y-103261904D01*
X130788635Y-103833333D01*
X130788635Y-103214285D01*
X117645778Y-102952380D02*
X118264826Y-102952380D01*
X117931493Y-103333333D01*
X118074350Y-103333333D01*
X118169588Y-103380952D01*
X118217207Y-103428571D01*
X118264826Y-103523809D01*
X118264826Y-103761904D01*
X118217207Y-103857142D01*
X118169588Y-103904761D01*
X118074350Y-103952380D01*
X117788635Y-103952380D01*
X117693397Y-103904761D01*
X117645778Y-103857142D01*
X118598159Y-103285714D02*
X118836255Y-103952380D01*
X119074350Y-103285714D01*
X119360064Y-102952380D02*
X119979112Y-102952380D01*
X119645778Y-103333333D01*
X119788635Y-103333333D01*
X119883874Y-103380952D01*
X119931493Y-103428571D01*
X119979112Y-103523809D01*
X119979112Y-103761904D01*
X119931493Y-103857142D01*
X119883874Y-103904761D01*
X119788635Y-103952380D01*
X119502921Y-103952380D01*
X119407683Y-103904761D01*
X119360064Y-103857142D01*
X117952380Y-135083333D02*
X117952380Y-134464285D01*
X118333333Y-134797619D01*
X118333333Y-134654761D01*
X118380952Y-134559523D01*
X118428571Y-134511904D01*
X118523809Y-134464285D01*
X118761904Y-134464285D01*
X118857142Y-134511904D01*
X118904761Y-134559523D01*
X118952380Y-134654761D01*
X118952380Y-134940476D01*
X118904761Y-135035714D01*
X118857142Y-135083333D01*
X118857142Y-134035714D02*
X118904761Y-133988095D01*
X118952380Y-134035714D01*
X118904761Y-134083333D01*
X118857142Y-134035714D01*
X118952380Y-134035714D01*
X117952380Y-133083333D02*
X117952380Y-133559523D01*
X118428571Y-133607142D01*
X118380952Y-133559523D01*
X118333333Y-133464285D01*
X118333333Y-133226190D01*
X118380952Y-133130952D01*
X118428571Y-133083333D01*
X118523809Y-133035714D01*
X118761904Y-133035714D01*
X118857142Y-133083333D01*
X118904761Y-133130952D01*
X118952380Y-133226190D01*
X118952380Y-133464285D01*
X118904761Y-133559523D01*
X118857142Y-133607142D01*
X118571428Y-132607142D02*
X118571428Y-131845238D01*
X118285714Y-130940476D02*
X118952380Y-130940476D01*
X117904761Y-131178571D02*
X118619047Y-131416666D01*
X118619047Y-130797619D01*
X117952380Y-130559523D02*
X118952380Y-130226190D01*
X117952380Y-129892857D01*
X118952380Y-129559523D02*
X117952380Y-129559523D01*
X118952380Y-129083333D02*
X117952380Y-129083333D01*
X118952380Y-128511904D01*
X117952380Y-128511904D01*
X130086255Y-96440476D02*
X130038635Y-96535714D01*
X130038635Y-96678571D01*
X130086255Y-96821428D01*
X130181493Y-96916666D01*
X130276731Y-96964285D01*
X130467207Y-97011904D01*
X130610064Y-97011904D01*
X130800540Y-96964285D01*
X130895778Y-96916666D01*
X130991016Y-96821428D01*
X131038635Y-96678571D01*
X131038635Y-96583333D01*
X130991016Y-96440476D01*
X130943397Y-96392857D01*
X130610064Y-96392857D01*
X130610064Y-96583333D01*
X131038635Y-95964285D02*
X130038635Y-95964285D01*
X130038635Y-95583333D01*
X130086255Y-95488095D01*
X130133874Y-95440476D01*
X130229112Y-95392857D01*
X130371969Y-95392857D01*
X130467207Y-95440476D01*
X130514826Y-95488095D01*
X130562445Y-95583333D01*
X130562445Y-95964285D01*
X131038635Y-94440476D02*
X131038635Y-95011904D01*
X131038635Y-94726190D02*
X130038635Y-94726190D01*
X130181493Y-94821428D01*
X130276731Y-94916666D01*
X130324350Y-95011904D01*
X130467207Y-93869047D02*
X130419588Y-93964285D01*
X130371969Y-94011904D01*
X130276731Y-94059523D01*
X130229112Y-94059523D01*
X130133874Y-94011904D01*
X130086255Y-93964285D01*
X130038635Y-93869047D01*
X130038635Y-93678571D01*
X130086255Y-93583333D01*
X130133874Y-93535714D01*
X130229112Y-93488095D01*
X130276731Y-93488095D01*
X130371969Y-93535714D01*
X130419588Y-93583333D01*
X130467207Y-93678571D01*
X130467207Y-93869047D01*
X130514826Y-93964285D01*
X130562445Y-94011904D01*
X130657683Y-94059523D01*
X130848159Y-94059523D01*
X130943397Y-94011904D01*
X130991016Y-93964285D01*
X131038635Y-93869047D01*
X131038635Y-93678571D01*
X130991016Y-93583333D01*
X130943397Y-93535714D01*
X130848159Y-93488095D01*
X130657683Y-93488095D01*
X130562445Y-93535714D01*
X130514826Y-93583333D01*
X130467207Y-93678571D01*
X118324350Y-96250000D02*
X118229112Y-96202380D01*
X118086255Y-96202380D01*
X117943397Y-96250000D01*
X117848159Y-96345238D01*
X117800540Y-96440476D01*
X117752921Y-96630952D01*
X117752921Y-96773809D01*
X117800540Y-96964285D01*
X117848159Y-97059523D01*
X117943397Y-97154761D01*
X118086255Y-97202380D01*
X118181493Y-97202380D01*
X118324350Y-97154761D01*
X118371969Y-97107142D01*
X118371969Y-96773809D01*
X118181493Y-96773809D01*
X118800540Y-97202380D02*
X118800540Y-96202380D01*
X119371969Y-97202380D01*
X119371969Y-96202380D01*
X119848159Y-97202380D02*
X119848159Y-96202380D01*
X120086255Y-96202380D01*
X120229112Y-96250000D01*
X120324350Y-96345238D01*
X120371969Y-96440476D01*
X120419588Y-96630952D01*
X120419588Y-96773809D01*
X120371969Y-96964285D01*
X120324350Y-97059523D01*
X120229112Y-97154761D01*
X120086255Y-97202380D01*
X119848159Y-97202380D01*
X142214380Y-129706666D02*
X141738190Y-130040000D01*
X142214380Y-130278095D02*
X141214380Y-130278095D01*
X141214380Y-129897142D01*
X141262000Y-129801904D01*
X141309619Y-129754285D01*
X141404857Y-129706666D01*
X141547714Y-129706666D01*
X141642952Y-129754285D01*
X141690571Y-129801904D01*
X141738190Y-129897142D01*
X141738190Y-130278095D01*
X141214380Y-129373333D02*
X142214380Y-128706666D01*
X141214380Y-128706666D02*
X142214380Y-129373333D01*
X140500000Y-106190476D02*
X140452380Y-106285714D01*
X140452380Y-106428571D01*
X140500000Y-106571428D01*
X140595238Y-106666666D01*
X140690476Y-106714285D01*
X140880952Y-106761904D01*
X141023809Y-106761904D01*
X141214285Y-106714285D01*
X141309523Y-106666666D01*
X141404761Y-106571428D01*
X141452380Y-106428571D01*
X141452380Y-106333333D01*
X141404761Y-106190476D01*
X141357142Y-106142857D01*
X141023809Y-106142857D01*
X141023809Y-106333333D01*
X141452380Y-105714285D02*
X140452380Y-105714285D01*
X140452380Y-105333333D01*
X140500000Y-105238095D01*
X140547619Y-105190476D01*
X140642857Y-105142857D01*
X140785714Y-105142857D01*
X140880952Y-105190476D01*
X140928571Y-105238095D01*
X140976190Y-105333333D01*
X140976190Y-105714285D01*
X141452380Y-104190476D02*
X141452380Y-104761904D01*
X141452380Y-104476190D02*
X140452380Y-104476190D01*
X140595238Y-104571428D01*
X140690476Y-104666666D01*
X140738095Y-104761904D01*
X141452380Y-103714285D02*
X141452380Y-103523809D01*
X141404761Y-103428571D01*
X141357142Y-103380952D01*
X141214285Y-103285714D01*
X141023809Y-103238095D01*
X140642857Y-103238095D01*
X140547619Y-103285714D01*
X140500000Y-103333333D01*
X140452380Y-103428571D01*
X140452380Y-103619047D01*
X140500000Y-103714285D01*
X140547619Y-103761904D01*
X140642857Y-103809523D01*
X140880952Y-103809523D01*
X140976190Y-103761904D01*
X141023809Y-103714285D01*
X141071428Y-103619047D01*
X141071428Y-103428571D01*
X141023809Y-103333333D01*
X140976190Y-103285714D01*
X140880952Y-103238095D01*
X122336255Y-96440476D02*
X122288635Y-96535714D01*
X122288635Y-96678571D01*
X122336255Y-96821428D01*
X122431493Y-96916666D01*
X122526731Y-96964285D01*
X122717207Y-97011904D01*
X122860064Y-97011904D01*
X123050540Y-96964285D01*
X123145778Y-96916666D01*
X123241016Y-96821428D01*
X123288635Y-96678571D01*
X123288635Y-96583333D01*
X123241016Y-96440476D01*
X123193397Y-96392857D01*
X122860064Y-96392857D01*
X122860064Y-96583333D01*
X123288635Y-95964285D02*
X122288635Y-95964285D01*
X122288635Y-95583333D01*
X122336255Y-95488095D01*
X122383874Y-95440476D01*
X122479112Y-95392857D01*
X122621969Y-95392857D01*
X122717207Y-95440476D01*
X122764826Y-95488095D01*
X122812445Y-95583333D01*
X122812445Y-95964285D01*
X123288635Y-94440476D02*
X123288635Y-95011904D01*
X123288635Y-94726190D02*
X122288635Y-94726190D01*
X122431493Y-94821428D01*
X122526731Y-94916666D01*
X122574350Y-95011904D01*
X122288635Y-93535714D02*
X122288635Y-94011904D01*
X122764826Y-94059523D01*
X122717207Y-94011904D01*
X122669588Y-93916666D01*
X122669588Y-93678571D01*
X122717207Y-93583333D01*
X122764826Y-93535714D01*
X122860064Y-93488095D01*
X123098159Y-93488095D01*
X123193397Y-93535714D01*
X123241016Y-93583333D01*
X123288635Y-93678571D01*
X123288635Y-93916666D01*
X123241016Y-94011904D01*
X123193397Y-94059523D01*
X132166761Y-131440476D02*
X132214380Y-131297619D01*
X132214380Y-131059523D01*
X132166761Y-130964285D01*
X132119142Y-130916666D01*
X132023904Y-130869047D01*
X131928666Y-130869047D01*
X131833428Y-130916666D01*
X131785809Y-130964285D01*
X131738190Y-131059523D01*
X131690571Y-131250000D01*
X131642952Y-131345238D01*
X131595333Y-131392857D01*
X131500095Y-131440476D01*
X131404857Y-131440476D01*
X131309619Y-131392857D01*
X131262000Y-131345238D01*
X131214380Y-131250000D01*
X131214380Y-131011904D01*
X131262000Y-130869047D01*
X132119142Y-129869047D02*
X132166761Y-129916666D01*
X132214380Y-130059523D01*
X132214380Y-130154761D01*
X132166761Y-130297619D01*
X132071523Y-130392857D01*
X131976285Y-130440476D01*
X131785809Y-130488095D01*
X131642952Y-130488095D01*
X131452476Y-130440476D01*
X131357238Y-130392857D01*
X131262000Y-130297619D01*
X131214380Y-130154761D01*
X131214380Y-130059523D01*
X131262000Y-129916666D01*
X131309619Y-129869047D01*
X132214380Y-128964285D02*
X132214380Y-129440476D01*
X131214380Y-129440476D01*
X124836255Y-105214285D02*
X124788635Y-105309523D01*
X124788635Y-105452380D01*
X124836255Y-105595238D01*
X124931493Y-105690476D01*
X125026731Y-105738095D01*
X125217207Y-105785714D01*
X125360064Y-105785714D01*
X125550540Y-105738095D01*
X125645778Y-105690476D01*
X125741016Y-105595238D01*
X125788635Y-105452380D01*
X125788635Y-105357142D01*
X125741016Y-105214285D01*
X125693397Y-105166666D01*
X125360064Y-105166666D01*
X125360064Y-105357142D01*
X125788635Y-104738095D02*
X124788635Y-104738095D01*
X124788635Y-104357142D01*
X124836255Y-104261904D01*
X124883874Y-104214285D01*
X124979112Y-104166666D01*
X125121969Y-104166666D01*
X125217207Y-104214285D01*
X125264826Y-104261904D01*
X125312445Y-104357142D01*
X125312445Y-104738095D01*
X125121969Y-103309523D02*
X125788635Y-103309523D01*
X124741016Y-103547619D02*
X125455302Y-103785714D01*
X125455302Y-103166666D01*
X138714380Y-130301904D02*
X138714380Y-129730476D01*
X139714380Y-130016190D02*
X138714380Y-130016190D01*
X138714380Y-129492380D02*
X139714380Y-128825714D01*
X138714380Y-128825714D02*
X139714380Y-129492380D01*
X125964380Y-131440476D02*
X125964380Y-130821428D01*
X126345333Y-131154761D01*
X126345333Y-131011904D01*
X126392952Y-130916666D01*
X126440571Y-130869047D01*
X126535809Y-130821428D01*
X126773904Y-130821428D01*
X126869142Y-130869047D01*
X126916761Y-130916666D01*
X126964380Y-131011904D01*
X126964380Y-131297619D01*
X126916761Y-131392857D01*
X126869142Y-131440476D01*
X126297714Y-130488095D02*
X126964380Y-130250000D01*
X126297714Y-130011904D01*
X125964380Y-129726190D02*
X125964380Y-129107142D01*
X126345333Y-129440476D01*
X126345333Y-129297619D01*
X126392952Y-129202380D01*
X126440571Y-129154761D01*
X126535809Y-129107142D01*
X126773904Y-129107142D01*
X126869142Y-129154761D01*
X126916761Y-129202380D01*
X126964380Y-129297619D01*
X126964380Y-129583333D01*
X126916761Y-129678571D01*
X126869142Y-129726190D01*
X129416761Y-131464285D02*
X129464380Y-131321428D01*
X129464380Y-131083333D01*
X129416761Y-130988095D01*
X129369142Y-130940476D01*
X129273904Y-130892857D01*
X129178666Y-130892857D01*
X129083428Y-130940476D01*
X129035809Y-130988095D01*
X128988190Y-131083333D01*
X128940571Y-131273809D01*
X128892952Y-131369047D01*
X128845333Y-131416666D01*
X128750095Y-131464285D01*
X128654857Y-131464285D01*
X128559619Y-131416666D01*
X128512000Y-131369047D01*
X128464380Y-131273809D01*
X128464380Y-131035714D01*
X128512000Y-130892857D01*
X129464380Y-130464285D02*
X128464380Y-130464285D01*
X128464380Y-130226190D01*
X128512000Y-130083333D01*
X128607238Y-129988095D01*
X128702476Y-129940476D01*
X128892952Y-129892857D01*
X129035809Y-129892857D01*
X129226285Y-129940476D01*
X129321523Y-129988095D01*
X129416761Y-130083333D01*
X129464380Y-130226190D01*
X129464380Y-130464285D01*
X129178666Y-129511904D02*
X129178666Y-129035714D01*
X129464380Y-129607142D02*
X128464380Y-129273809D01*
X129464380Y-128940476D01*
X132586255Y-96440476D02*
X132538635Y-96535714D01*
X132538635Y-96678571D01*
X132586255Y-96821428D01*
X132681493Y-96916666D01*
X132776731Y-96964285D01*
X132967207Y-97011904D01*
X133110064Y-97011904D01*
X133300540Y-96964285D01*
X133395778Y-96916666D01*
X133491016Y-96821428D01*
X133538635Y-96678571D01*
X133538635Y-96583333D01*
X133491016Y-96440476D01*
X133443397Y-96392857D01*
X133110064Y-96392857D01*
X133110064Y-96583333D01*
X133538635Y-95964285D02*
X132538635Y-95964285D01*
X132538635Y-95583333D01*
X132586255Y-95488095D01*
X132633874Y-95440476D01*
X132729112Y-95392857D01*
X132871969Y-95392857D01*
X132967207Y-95440476D01*
X133014826Y-95488095D01*
X133062445Y-95583333D01*
X133062445Y-95964285D01*
X132633874Y-95011904D02*
X132586255Y-94964285D01*
X132538635Y-94869047D01*
X132538635Y-94630952D01*
X132586255Y-94535714D01*
X132633874Y-94488095D01*
X132729112Y-94440476D01*
X132824350Y-94440476D01*
X132967207Y-94488095D01*
X133538635Y-95059523D01*
X133538635Y-94440476D01*
X132538635Y-93583333D02*
X132538635Y-93773809D01*
X132586255Y-93869047D01*
X132633874Y-93916666D01*
X132776731Y-94011904D01*
X132967207Y-94059523D01*
X133348159Y-94059523D01*
X133443397Y-94011904D01*
X133491016Y-93964285D01*
X133538635Y-93869047D01*
X133538635Y-93678571D01*
X133491016Y-93583333D01*
X133443397Y-93535714D01*
X133348159Y-93488095D01*
X133110064Y-93488095D01*
X133014826Y-93535714D01*
X132967207Y-93583333D01*
X132919588Y-93678571D01*
X132919588Y-93869047D01*
X132967207Y-93964285D01*
X133014826Y-94011904D01*
X133110064Y-94059523D01*
X115512000Y-130761904D02*
X115464380Y-130857142D01*
X115464380Y-131000000D01*
X115512000Y-131142857D01*
X115607238Y-131238095D01*
X115702476Y-131285714D01*
X115892952Y-131333333D01*
X116035809Y-131333333D01*
X116226285Y-131285714D01*
X116321523Y-131238095D01*
X116416761Y-131142857D01*
X116464380Y-131000000D01*
X116464380Y-130904761D01*
X116416761Y-130761904D01*
X116369142Y-130714285D01*
X116035809Y-130714285D01*
X116035809Y-130904761D01*
X116464380Y-130285714D02*
X115464380Y-130285714D01*
X116464380Y-129714285D01*
X115464380Y-129714285D01*
X116464380Y-129238095D02*
X115464380Y-129238095D01*
X115464380Y-129000000D01*
X115512000Y-128857142D01*
X115607238Y-128761904D01*
X115702476Y-128714285D01*
X115892952Y-128666666D01*
X116035809Y-128666666D01*
X116226285Y-128714285D01*
X116321523Y-128761904D01*
X116416761Y-128857142D01*
X116464380Y-129000000D01*
X116464380Y-129238095D01*
X123512000Y-131011904D02*
X123464380Y-131107142D01*
X123464380Y-131250000D01*
X123512000Y-131392857D01*
X123607238Y-131488095D01*
X123702476Y-131535714D01*
X123892952Y-131583333D01*
X124035809Y-131583333D01*
X124226285Y-131535714D01*
X124321523Y-131488095D01*
X124416761Y-131392857D01*
X124464380Y-131250000D01*
X124464380Y-131154761D01*
X124416761Y-131011904D01*
X124369142Y-130964285D01*
X124035809Y-130964285D01*
X124035809Y-131154761D01*
X124464380Y-130535714D02*
X123464380Y-130535714D01*
X124464380Y-129964285D01*
X123464380Y-129964285D01*
X124464380Y-129488095D02*
X123464380Y-129488095D01*
X123464380Y-129250000D01*
X123512000Y-129107142D01*
X123607238Y-129011904D01*
X123702476Y-128964285D01*
X123892952Y-128916666D01*
X124035809Y-128916666D01*
X124226285Y-128964285D01*
X124321523Y-129011904D01*
X124416761Y-129107142D01*
X124464380Y-129250000D01*
X124464380Y-129488095D01*
X138538635Y-96488095D02*
X138062445Y-96821428D01*
X138538635Y-97059523D02*
X137538635Y-97059523D01*
X137538635Y-96678571D01*
X137586255Y-96583333D01*
X137633874Y-96535714D01*
X137729112Y-96488095D01*
X137871969Y-96488095D01*
X137967207Y-96535714D01*
X138014826Y-96583333D01*
X138062445Y-96678571D01*
X138062445Y-97059523D01*
X137538635Y-96059523D02*
X138348159Y-96059523D01*
X138443397Y-96011904D01*
X138491016Y-95964285D01*
X138538635Y-95869047D01*
X138538635Y-95678571D01*
X138491016Y-95583333D01*
X138443397Y-95535714D01*
X138348159Y-95488095D01*
X137538635Y-95488095D01*
X138538635Y-95011904D02*
X137538635Y-95011904D01*
X138538635Y-94440476D01*
X137538635Y-94440476D01*
X122336255Y-105214285D02*
X122288635Y-105309523D01*
X122288635Y-105452380D01*
X122336255Y-105595238D01*
X122431493Y-105690476D01*
X122526731Y-105738095D01*
X122717207Y-105785714D01*
X122860064Y-105785714D01*
X123050540Y-105738095D01*
X123145778Y-105690476D01*
X123241016Y-105595238D01*
X123288635Y-105452380D01*
X123288635Y-105357142D01*
X123241016Y-105214285D01*
X123193397Y-105166666D01*
X122860064Y-105166666D01*
X122860064Y-105357142D01*
X123288635Y-104738095D02*
X122288635Y-104738095D01*
X122288635Y-104357142D01*
X122336255Y-104261904D01*
X122383874Y-104214285D01*
X122479112Y-104166666D01*
X122621969Y-104166666D01*
X122717207Y-104214285D01*
X122764826Y-104261904D01*
X122812445Y-104357142D01*
X122812445Y-104738095D01*
X122288635Y-103261904D02*
X122288635Y-103738095D01*
X122764826Y-103785714D01*
X122717207Y-103738095D01*
X122669588Y-103642857D01*
X122669588Y-103404761D01*
X122717207Y-103309523D01*
X122764826Y-103261904D01*
X122860064Y-103214285D01*
X123098159Y-103214285D01*
X123193397Y-103261904D01*
X123241016Y-103309523D01*
X123288635Y-103404761D01*
X123288635Y-103642857D01*
X123241016Y-103738095D01*
X123193397Y-103785714D01*
X127586255Y-96440476D02*
X127538635Y-96535714D01*
X127538635Y-96678571D01*
X127586255Y-96821428D01*
X127681493Y-96916666D01*
X127776731Y-96964285D01*
X127967207Y-97011904D01*
X128110064Y-97011904D01*
X128300540Y-96964285D01*
X128395778Y-96916666D01*
X128491016Y-96821428D01*
X128538635Y-96678571D01*
X128538635Y-96583333D01*
X128491016Y-96440476D01*
X128443397Y-96392857D01*
X128110064Y-96392857D01*
X128110064Y-96583333D01*
X128538635Y-95964285D02*
X127538635Y-95964285D01*
X127538635Y-95583333D01*
X127586255Y-95488095D01*
X127633874Y-95440476D01*
X127729112Y-95392857D01*
X127871969Y-95392857D01*
X127967207Y-95440476D01*
X128014826Y-95488095D01*
X128062445Y-95583333D01*
X128062445Y-95964285D01*
X128538635Y-94440476D02*
X128538635Y-95011904D01*
X128538635Y-94726190D02*
X127538635Y-94726190D01*
X127681493Y-94821428D01*
X127776731Y-94916666D01*
X127824350Y-95011904D01*
X127538635Y-94107142D02*
X127538635Y-93440476D01*
X128538635Y-93869047D01*
X136262000Y-130936904D02*
X136214380Y-131032142D01*
X136214380Y-131175000D01*
X136262000Y-131317857D01*
X136357238Y-131413095D01*
X136452476Y-131460714D01*
X136642952Y-131508333D01*
X136785809Y-131508333D01*
X136976285Y-131460714D01*
X137071523Y-131413095D01*
X137166761Y-131317857D01*
X137214380Y-131175000D01*
X137214380Y-131079761D01*
X137166761Y-130936904D01*
X137119142Y-130889285D01*
X136785809Y-130889285D01*
X136785809Y-131079761D01*
X137214380Y-130460714D02*
X136214380Y-130460714D01*
X137214380Y-129889285D01*
X136214380Y-129889285D01*
X137214380Y-129413095D02*
X136214380Y-129413095D01*
X136214380Y-129175000D01*
X136262000Y-129032142D01*
X136357238Y-128936904D01*
X136452476Y-128889285D01*
X136642952Y-128841666D01*
X136785809Y-128841666D01*
X136976285Y-128889285D01*
X137071523Y-128936904D01*
X137166761Y-129032142D01*
X137214380Y-129175000D01*
X137214380Y-129413095D01*
X140752921Y-96869047D02*
X140752921Y-96392857D01*
X141038635Y-96964285D02*
X140038635Y-96630952D01*
X141038635Y-96297619D01*
X141038635Y-95392857D02*
X140562445Y-95726190D01*
X141038635Y-95964285D02*
X140038635Y-95964285D01*
X140038635Y-95583333D01*
X140086255Y-95488095D01*
X140133874Y-95440476D01*
X140229112Y-95392857D01*
X140371969Y-95392857D01*
X140467207Y-95440476D01*
X140514826Y-95488095D01*
X140562445Y-95583333D01*
X140562445Y-95964285D01*
X140514826Y-94964285D02*
X140514826Y-94630952D01*
X141038635Y-94488095D02*
X141038635Y-94964285D01*
X140038635Y-94964285D01*
X140038635Y-94488095D01*
X140514826Y-93726190D02*
X140514826Y-94059523D01*
X141038635Y-94059523D02*
X140038635Y-94059523D01*
X140038635Y-93583333D01*
X138000000Y-106190476D02*
X137952380Y-106285714D01*
X137952380Y-106428571D01*
X138000000Y-106571428D01*
X138095238Y-106666666D01*
X138190476Y-106714285D01*
X138380952Y-106761904D01*
X138523809Y-106761904D01*
X138714285Y-106714285D01*
X138809523Y-106666666D01*
X138904761Y-106571428D01*
X138952380Y-106428571D01*
X138952380Y-106333333D01*
X138904761Y-106190476D01*
X138857142Y-106142857D01*
X138523809Y-106142857D01*
X138523809Y-106333333D01*
X138952380Y-105714285D02*
X137952380Y-105714285D01*
X137952380Y-105333333D01*
X138000000Y-105238095D01*
X138047619Y-105190476D01*
X138142857Y-105142857D01*
X138285714Y-105142857D01*
X138380952Y-105190476D01*
X138428571Y-105238095D01*
X138476190Y-105333333D01*
X138476190Y-105714285D01*
X138047619Y-104761904D02*
X138000000Y-104714285D01*
X137952380Y-104619047D01*
X137952380Y-104380952D01*
X138000000Y-104285714D01*
X138047619Y-104238095D01*
X138142857Y-104190476D01*
X138238095Y-104190476D01*
X138380952Y-104238095D01*
X138952380Y-104809523D01*
X138952380Y-104190476D01*
X137952380Y-103571428D02*
X137952380Y-103476190D01*
X138000000Y-103380952D01*
X138047619Y-103333333D01*
X138142857Y-103285714D01*
X138333333Y-103238095D01*
X138571428Y-103238095D01*
X138761904Y-103285714D01*
X138857142Y-103333333D01*
X138904761Y-103380952D01*
X138952380Y-103476190D01*
X138952380Y-103571428D01*
X138904761Y-103666666D01*
X138857142Y-103714285D01*
X138761904Y-103761904D01*
X138571428Y-103809523D01*
X138333333Y-103809523D01*
X138142857Y-103761904D01*
X138047619Y-103714285D01*
X138000000Y-103666666D01*
X137952380Y-103571428D01*
%TO.C,J5*%
X121084380Y-127333333D02*
X121798666Y-127333333D01*
X121941523Y-127380952D01*
X122036761Y-127476190D01*
X122084380Y-127619047D01*
X122084380Y-127714285D01*
X121084380Y-126380952D02*
X121084380Y-126857142D01*
X121560571Y-126904761D01*
X121512952Y-126857142D01*
X121465333Y-126761904D01*
X121465333Y-126523809D01*
X121512952Y-126428571D01*
X121560571Y-126380952D01*
X121655809Y-126333333D01*
X121893904Y-126333333D01*
X121989142Y-126380952D01*
X122036761Y-126428571D01*
X122084380Y-126523809D01*
X122084380Y-126761904D01*
X122036761Y-126857142D01*
X121989142Y-126904761D01*
%TO.C,SW1*%
X154666666Y-133754761D02*
X154809523Y-133802380D01*
X155047619Y-133802380D01*
X155142857Y-133754761D01*
X155190476Y-133707142D01*
X155238095Y-133611904D01*
X155238095Y-133516666D01*
X155190476Y-133421428D01*
X155142857Y-133373809D01*
X155047619Y-133326190D01*
X154857142Y-133278571D01*
X154761904Y-133230952D01*
X154714285Y-133183333D01*
X154666666Y-133088095D01*
X154666666Y-132992857D01*
X154714285Y-132897619D01*
X154761904Y-132850000D01*
X154857142Y-132802380D01*
X155095238Y-132802380D01*
X155238095Y-132850000D01*
X155571428Y-132802380D02*
X155809523Y-133802380D01*
X156000000Y-133088095D01*
X156190476Y-133802380D01*
X156428571Y-132802380D01*
X157333333Y-133802380D02*
X156761904Y-133802380D01*
X157047619Y-133802380D02*
X157047619Y-132802380D01*
X156952380Y-132945238D01*
X156857142Y-133040476D01*
X156761904Y-133088095D01*
%TO.C,R4*%
X156782380Y-113166666D02*
X156306190Y-113500000D01*
X156782380Y-113738095D02*
X155782380Y-113738095D01*
X155782380Y-113357142D01*
X155830000Y-113261904D01*
X155877619Y-113214285D01*
X155972857Y-113166666D01*
X156115714Y-113166666D01*
X156210952Y-113214285D01*
X156258571Y-113261904D01*
X156306190Y-113357142D01*
X156306190Y-113738095D01*
X156115714Y-112309523D02*
X156782380Y-112309523D01*
X155734761Y-112547619D02*
X156449047Y-112785714D01*
X156449047Y-112166666D01*
%TO.C,SW3*%
X101666666Y-92904761D02*
X101809523Y-92952380D01*
X102047619Y-92952380D01*
X102142857Y-92904761D01*
X102190476Y-92857142D01*
X102238095Y-92761904D01*
X102238095Y-92666666D01*
X102190476Y-92571428D01*
X102142857Y-92523809D01*
X102047619Y-92476190D01*
X101857142Y-92428571D01*
X101761904Y-92380952D01*
X101714285Y-92333333D01*
X101666666Y-92238095D01*
X101666666Y-92142857D01*
X101714285Y-92047619D01*
X101761904Y-92000000D01*
X101857142Y-91952380D01*
X102095238Y-91952380D01*
X102238095Y-92000000D01*
X102571428Y-91952380D02*
X102809523Y-92952380D01*
X103000000Y-92238095D01*
X103190476Y-92952380D01*
X103428571Y-91952380D01*
X103714285Y-91952380D02*
X104333333Y-91952380D01*
X104000000Y-92333333D01*
X104142857Y-92333333D01*
X104238095Y-92380952D01*
X104285714Y-92428571D01*
X104333333Y-92523809D01*
X104333333Y-92761904D01*
X104285714Y-92857142D01*
X104238095Y-92904761D01*
X104142857Y-92952380D01*
X103857142Y-92952380D01*
X103761904Y-92904761D01*
X103714285Y-92857142D01*
%TO.C,J6*%
X142368635Y-100328333D02*
X143082921Y-100328333D01*
X143225778Y-100375952D01*
X143321016Y-100471190D01*
X143368635Y-100614047D01*
X143368635Y-100709285D01*
X142368635Y-99423571D02*
X142368635Y-99614047D01*
X142416255Y-99709285D01*
X142463874Y-99756904D01*
X142606731Y-99852142D01*
X142797207Y-99899761D01*
X143178159Y-99899761D01*
X143273397Y-99852142D01*
X143321016Y-99804523D01*
X143368635Y-99709285D01*
X143368635Y-99518809D01*
X143321016Y-99423571D01*
X143273397Y-99375952D01*
X143178159Y-99328333D01*
X142940064Y-99328333D01*
X142844826Y-99375952D01*
X142797207Y-99423571D01*
X142749588Y-99518809D01*
X142749588Y-99709285D01*
X142797207Y-99804523D01*
X142844826Y-99852142D01*
X142940064Y-99899761D01*
%TO.C,D1*%
X128181904Y-120872380D02*
X128181904Y-119872380D01*
X128420000Y-119872380D01*
X128562857Y-119920000D01*
X128658095Y-120015238D01*
X128705714Y-120110476D01*
X128753333Y-120300952D01*
X128753333Y-120443809D01*
X128705714Y-120634285D01*
X128658095Y-120729523D01*
X128562857Y-120824761D01*
X128420000Y-120872380D01*
X128181904Y-120872380D01*
X129705714Y-120872380D02*
X129134285Y-120872380D01*
X129420000Y-120872380D02*
X129420000Y-119872380D01*
X129324761Y-120015238D01*
X129229523Y-120110476D01*
X129134285Y-120158095D01*
X133738095Y-120152380D02*
X133738095Y-119152380D01*
X134309523Y-120152380D02*
X133880952Y-119580952D01*
X134309523Y-119152380D02*
X133738095Y-119723809D01*
%TO.C,J1*%
X133859380Y-127333333D02*
X134573666Y-127333333D01*
X134716523Y-127380952D01*
X134811761Y-127476190D01*
X134859380Y-127619047D01*
X134859380Y-127714285D01*
X134859380Y-126333333D02*
X134859380Y-126904761D01*
X134859380Y-126619047D02*
X133859380Y-126619047D01*
X134002238Y-126714285D01*
X134097476Y-126809523D01*
X134145095Y-126904761D01*
%TO.C,J2*%
X113109380Y-127333333D02*
X113823666Y-127333333D01*
X113966523Y-127380952D01*
X114061761Y-127476190D01*
X114109380Y-127619047D01*
X114109380Y-127714285D01*
X113204619Y-126904761D02*
X113157000Y-126857142D01*
X113109380Y-126761904D01*
X113109380Y-126523809D01*
X113157000Y-126428571D01*
X113204619Y-126380952D01*
X113299857Y-126333333D01*
X113395095Y-126333333D01*
X113537952Y-126380952D01*
X114109380Y-126952380D01*
X114109380Y-126333333D01*
%TO.C,R1*%
X150952380Y-113166666D02*
X150476190Y-113500000D01*
X150952380Y-113738095D02*
X149952380Y-113738095D01*
X149952380Y-113357142D01*
X150000000Y-113261904D01*
X150047619Y-113214285D01*
X150142857Y-113166666D01*
X150285714Y-113166666D01*
X150380952Y-113214285D01*
X150428571Y-113261904D01*
X150476190Y-113357142D01*
X150476190Y-113738095D01*
X150952380Y-112214285D02*
X150952380Y-112785714D01*
X150952380Y-112500000D02*
X149952380Y-112500000D01*
X150095238Y-112595238D01*
X150190476Y-112690476D01*
X150238095Y-112785714D01*
%TO.C,SW4*%
X154666666Y-92479761D02*
X154809523Y-92527380D01*
X155047619Y-92527380D01*
X155142857Y-92479761D01*
X155190476Y-92432142D01*
X155238095Y-92336904D01*
X155238095Y-92241666D01*
X155190476Y-92146428D01*
X155142857Y-92098809D01*
X155047619Y-92051190D01*
X154857142Y-92003571D01*
X154761904Y-91955952D01*
X154714285Y-91908333D01*
X154666666Y-91813095D01*
X154666666Y-91717857D01*
X154714285Y-91622619D01*
X154761904Y-91575000D01*
X154857142Y-91527380D01*
X155095238Y-91527380D01*
X155238095Y-91575000D01*
X155571428Y-91527380D02*
X155809523Y-92527380D01*
X156000000Y-91813095D01*
X156190476Y-92527380D01*
X156428571Y-91527380D01*
X157238095Y-91860714D02*
X157238095Y-92527380D01*
X157000000Y-91479761D02*
X156761904Y-92194047D01*
X157380952Y-92194047D01*
%TO.C,R3*%
X109452380Y-113166666D02*
X108976190Y-113500000D01*
X109452380Y-113738095D02*
X108452380Y-113738095D01*
X108452380Y-113357142D01*
X108500000Y-113261904D01*
X108547619Y-113214285D01*
X108642857Y-113166666D01*
X108785714Y-113166666D01*
X108880952Y-113214285D01*
X108928571Y-113261904D01*
X108976190Y-113357142D01*
X108976190Y-113738095D01*
X108452380Y-112833333D02*
X108452380Y-112214285D01*
X108833333Y-112547619D01*
X108833333Y-112404761D01*
X108880952Y-112309523D01*
X108928571Y-112261904D01*
X109023809Y-112214285D01*
X109261904Y-112214285D01*
X109357142Y-112261904D01*
X109404761Y-112309523D01*
X109452380Y-112404761D01*
X109452380Y-112690476D01*
X109404761Y-112785714D01*
X109357142Y-112833333D01*
%TO.C,R2*%
X103372380Y-113166666D02*
X102896190Y-113500000D01*
X103372380Y-113738095D02*
X102372380Y-113738095D01*
X102372380Y-113357142D01*
X102420000Y-113261904D01*
X102467619Y-113214285D01*
X102562857Y-113166666D01*
X102705714Y-113166666D01*
X102800952Y-113214285D01*
X102848571Y-113261904D01*
X102896190Y-113357142D01*
X102896190Y-113738095D01*
X102467619Y-112785714D02*
X102420000Y-112738095D01*
X102372380Y-112642857D01*
X102372380Y-112404761D01*
X102420000Y-112309523D01*
X102467619Y-112261904D01*
X102562857Y-112214285D01*
X102658095Y-112214285D01*
X102800952Y-112261904D01*
X103372380Y-112833333D01*
X103372380Y-112214285D01*
%TO.C,SW2*%
X101666666Y-133404761D02*
X101809523Y-133452380D01*
X102047619Y-133452380D01*
X102142857Y-133404761D01*
X102190476Y-133357142D01*
X102238095Y-133261904D01*
X102238095Y-133166666D01*
X102190476Y-133071428D01*
X102142857Y-133023809D01*
X102047619Y-132976190D01*
X101857142Y-132928571D01*
X101761904Y-132880952D01*
X101714285Y-132833333D01*
X101666666Y-132738095D01*
X101666666Y-132642857D01*
X101714285Y-132547619D01*
X101761904Y-132500000D01*
X101857142Y-132452380D01*
X102095238Y-132452380D01*
X102238095Y-132500000D01*
X102571428Y-132452380D02*
X102809523Y-133452380D01*
X103000000Y-132738095D01*
X103190476Y-133452380D01*
X103428571Y-132452380D01*
X103761904Y-132547619D02*
X103809523Y-132500000D01*
X103904761Y-132452380D01*
X104142857Y-132452380D01*
X104238095Y-132500000D01*
X104285714Y-132547619D01*
X104333333Y-132642857D01*
X104333333Y-132738095D01*
X104285714Y-132880952D01*
X103714285Y-133452380D01*
X104333333Y-133452380D01*
%TO.C,J3*%
X115373666Y-120781380D02*
X115373666Y-121495666D01*
X115326047Y-121638523D01*
X115230809Y-121733761D01*
X115087952Y-121781380D01*
X114992714Y-121781380D01*
X115754619Y-120781380D02*
X116373666Y-120781380D01*
X116040333Y-121162333D01*
X116183190Y-121162333D01*
X116278428Y-121209952D01*
X116326047Y-121257571D01*
X116373666Y-121352809D01*
X116373666Y-121590904D01*
X116326047Y-121686142D01*
X116278428Y-121733761D01*
X116183190Y-121781380D01*
X115897476Y-121781380D01*
X115802238Y-121733761D01*
X115754619Y-121686142D01*
%TO.C,J4*%
X142287666Y-120781380D02*
X142287666Y-121495666D01*
X142240047Y-121638523D01*
X142144809Y-121733761D01*
X142001952Y-121781380D01*
X141906714Y-121781380D01*
X143192428Y-121114714D02*
X143192428Y-121781380D01*
X142954333Y-120733761D02*
X142716238Y-121448047D01*
X143335285Y-121448047D01*
D11*
%TO.C,J5*%
X125232000Y-128330000D02*
X125232000Y-125670000D01*
X123962000Y-128330000D02*
X122632000Y-128330000D01*
X132912000Y-128330000D02*
X132912000Y-125670000D01*
X125232000Y-125670000D02*
X132912000Y-125670000D01*
X122632000Y-128330000D02*
X122632000Y-127000000D01*
X125232000Y-128330000D02*
X132912000Y-128330000D01*
%TO.C,SW1*%
X159500000Y-129500000D02*
X159500000Y-128000000D01*
X153750000Y-132000000D02*
X158250000Y-132000000D01*
X152500000Y-128000000D02*
X152500000Y-129500000D01*
X158250000Y-125500000D02*
X153750000Y-125500000D01*
%TO.C,R4*%
X157330000Y-107930000D02*
X157810000Y-107930000D01*
X157330000Y-118070000D02*
X157330000Y-107930000D01*
X157810000Y-118070000D02*
X157330000Y-118070000D01*
X161170000Y-118070000D02*
X161170000Y-107930000D01*
X160690000Y-118070000D02*
X161170000Y-118070000D01*
X161170000Y-107930000D02*
X160690000Y-107930000D01*
%TO.C,SW3*%
X106500000Y-97500000D02*
X106500000Y-96000000D01*
X105250000Y-93500000D02*
X100750000Y-93500000D01*
X100750000Y-100000000D02*
X105250000Y-100000000D01*
X99500000Y-96000000D02*
X99500000Y-97500000D01*
%TO.C,J6*%
X139316255Y-99995000D02*
X141916255Y-99995000D01*
X139316255Y-97395000D02*
X116396255Y-97395000D01*
X140586255Y-97395000D02*
X141916255Y-97395000D01*
X141916255Y-97395000D02*
X141916255Y-98725000D01*
X139316255Y-97395000D02*
X139316255Y-99995000D01*
X141916255Y-102595000D02*
X116396255Y-102595000D01*
X141916255Y-99995000D02*
X141916255Y-102595000D01*
X116396255Y-97395000D02*
X116396255Y-102595000D01*
%TO.C,D1*%
X131580000Y-119420000D02*
X131580000Y-115580000D01*
X132840000Y-115580000D02*
X125000000Y-115580000D01*
X131460000Y-119420000D02*
X131460000Y-115580000D01*
X125000000Y-119420000D02*
X125000000Y-118940000D01*
X132840000Y-118940000D02*
X132840000Y-119420000D01*
X125000000Y-115580000D02*
X125000000Y-116060000D01*
X131700000Y-119420000D02*
X131700000Y-115580000D01*
X132840000Y-119420000D02*
X125000000Y-119420000D01*
X132840000Y-116060000D02*
X132840000Y-115580000D01*
%TO.C,J1*%
X143147000Y-128330000D02*
X143147000Y-125670000D01*
X135407000Y-128330000D02*
X135407000Y-127000000D01*
X138007000Y-125670000D02*
X143147000Y-125670000D01*
X138007000Y-128330000D02*
X138007000Y-125670000D01*
X138007000Y-128330000D02*
X143147000Y-128330000D01*
X136737000Y-128330000D02*
X135407000Y-128330000D01*
%TO.C,J2*%
X115987000Y-128330000D02*
X114657000Y-128330000D01*
X119857000Y-128330000D02*
X119857000Y-125670000D01*
X117257000Y-125670000D02*
X119857000Y-125670000D01*
X117257000Y-128330000D02*
X117257000Y-125670000D01*
X114657000Y-128330000D02*
X114657000Y-127000000D01*
X117257000Y-128330000D02*
X119857000Y-128330000D01*
%TO.C,R1*%
X155170000Y-107930000D02*
X155170000Y-118070000D01*
X151810000Y-107930000D02*
X151330000Y-107930000D01*
X151330000Y-107930000D02*
X151330000Y-118070000D01*
X155170000Y-118070000D02*
X154690000Y-118070000D01*
X151330000Y-118070000D02*
X151810000Y-118070000D01*
X154690000Y-107930000D02*
X155170000Y-107930000D01*
%TO.C,SW4*%
X159500000Y-97500000D02*
X159500000Y-96000000D01*
X152500000Y-96000000D02*
X152500000Y-97500000D01*
X153750000Y-100000000D02*
X158250000Y-100000000D01*
X158250000Y-93500000D02*
X153750000Y-93500000D01*
%TO.C,R3*%
X104080000Y-118070000D02*
X104080000Y-107930000D01*
X104080000Y-107930000D02*
X104560000Y-107930000D01*
X107440000Y-118070000D02*
X107920000Y-118070000D01*
X107920000Y-118070000D02*
X107920000Y-107930000D01*
X107920000Y-107930000D02*
X107440000Y-107930000D01*
X104560000Y-118070000D02*
X104080000Y-118070000D01*
%TO.C,R2*%
X101920000Y-107930000D02*
X101920000Y-118070000D01*
X98080000Y-107930000D02*
X98080000Y-118070000D01*
X98560000Y-107930000D02*
X98080000Y-107930000D01*
X98080000Y-118070000D02*
X98560000Y-118070000D01*
X101920000Y-118070000D02*
X101440000Y-118070000D01*
X101440000Y-107930000D02*
X101920000Y-107930000D01*
%TO.C,SW2*%
X100750000Y-132000000D02*
X105250000Y-132000000D01*
X106500000Y-129500000D02*
X106500000Y-128000000D01*
X99500000Y-128000000D02*
X99500000Y-129500000D01*
X105250000Y-125500000D02*
X100750000Y-125500000D01*
%TD*%
M02*
